<svg xmlns="http://www.w3.org/2000/svg" width="238.61746215820312" height="228.78765869140625" viewBox="-25.637243270874023 -15.255400657653809 238.61746215820312 228.78765869140625"><title>Neo4j Graph Visualization</title><desc>Created using Neo4j (http://www.neo4j.com/)</desc><g class="layer relationships"><g class="relationship" transform="translate(167.53269564555046 184.53223561232286) rotate(278.9461314503627)"><path class="outline" fill="#A5ABB6" stroke="none" d="M 21.40063509461097,12.933012701892217 L 21.90063509461097,12.06698729810778 A 58.19417410108936 58.19417410108936 0 0 0 22.698563100104725,12.519324642844268 L 22.212274575829213,13.393122944031646 A 59.19417410108936 59.19417410108936 0 0 1 21.40063509461097,12.933012701892217 Z M 76.49235174386997,15.091953410348971 L 76.0616568319826,14.189455824272237 A 58.19417410108936 58.19417410108936 0 0 0 76.88630951773455,13.787901191281254 L 75.55171265615141,11.101109197647874 L 83.37792364647629,11.121640513192824 L 78.66577199984539,17.370290516125763 L 77.33117513826225,14.683498522492382 A 59.19417410108936 59.19417410108936 0 0 1 76.49235174386997,15.091953410348971"/><text text-anchor="middle" pointer-events="none" font-size="8px" fill="#000000" x="49.16164053167582" y="23.334802930094895" font-family="sans-serif">PublicTrans…</text></g><g class="relationship" transform="translate(183.98020955055676 80.05104665841107) rotate(219.01850324162956)"><path class="outline" fill="#A5ABB6" stroke="none" d="M 25 0.5 L 39.4920279753977 0.5 L 39.4920279753977 -0.5 L 25 -0.5 Z M 58.8279654753977 0.5 L 73.3199934507954 0.5 L 73.3199934507954 3.5 L 80.3199934507954 0 L 73.3199934507954 -3.5 L 73.3199934507954 -0.5 L 58.8279654753977 -0.5 Z"/><text text-anchor="middle" pointer-events="none" font-size="8px" fill="#000000" x="49.1599967253977" y="3" transform="rotate(180 49.1599967253977 0)" font-family="sans-serif">trek</text></g><g class="relationship" transform="translate(102.15261088175524 13.744598129077698) rotate(519.1204122761035)"><path class="outline" fill="#A5ABB6" stroke="none" d="M 25 0.5 L 39.69862792008954 0.5 L 39.69862792008954 -0.5 L 25 -0.5 Z M 59.03456542008954 0.5 L 73.73319334017908 0.5 L 73.73319334017908 3.5 L 80.73319334017908 0 L 73.73319334017908 -3.5 L 73.73319334017908 -0.5 L 59.03456542008954 -0.5 Z"/><text text-anchor="middle" pointer-events="none" font-size="8px" fill="#000000" x="49.36659667008954" y="3" transform="rotate(180 49.36659667008954 0)" font-family="sans-serif">trek</text></g><g class="relationship" transform="translate(167.53269564555046 184.53223561232286) rotate(278.9461314503627)"><path class="outline" fill="#A5ABB6" stroke="none" d="M 25 0.5 L 38.37806908837722 0.5 L 38.37806908837722 -0.5 L 25 -0.5 Z M 60.38978783837722 0.5 L 73.76785692675443 0.5 L 73.76785692675443 3.5 L 80.76785692675443 0 L 73.76785692675443 -3.5 L 73.76785692675443 -0.5 L 60.38978783837722 -0.5 Z"/><text text-anchor="middle" pointer-events="none" font-size="8px" fill="#000000" x="49.38392846337722" y="3" font-family="sans-serif">road</text></g><g class="relationship" transform="translate(167.53269564555046 184.53223561232286) rotate(278.9461314503627)"><path class="outline" fill="#A5ABB6" stroke="none" d="M 21.40063509461097,-12.933012701892217 L 21.90063509461097,-12.06698729810778 A 58.19417410108936 58.19417410108936 0 0 1 39.664269260566414,-18.74925208084702 L 39.469516898158076,-19.730104525069073 A 59.19417410108936 59.19417410108936 0 0 0 21.40063509461097,-12.933012701892217 Z M 58.87260928276409,-20.337372720021946 L 58.739574448556255,-19.34626135751656 A 58.19417410108936 58.19417410108936 0 0 1 76.88630951773455,-13.787901191281254 L 75.55171265615141,-11.101109197647874 L 83.37792364647629,-11.121640513192824 L 78.66577199984539,-17.370290516125763 L 77.33117513826225,-14.683498522492382 A 59.19417410108936 59.19417410108936 0 0 0 58.87260928276409,-20.337372720021946"/><text text-anchor="middle" pointer-events="none" font-size="8px" fill="#000000" x="49.1616405316758" y="-17.334802930094895" font-family="sans-serif">trek</text></g></g><g class="layer nodes"><g class="node" transform="translate(167.53269564555046,184.53223561232286)"><circle class="outline" cx="0" cy="0" r="25" fill="#F16667" stroke="#eb2728" stroke-width="2px"/><text text-anchor="middle" pointer-events="none" font-family="sans-serif" dy="1.5625" font-size="25" fill="#FFFFFF"/><text text-anchor="middle" pointer-events="none" y="5" font-size="10px" fill="#FFFFFF" font-family="sans-serif"> Darjeeling</text></g><g class="node" transform="translate(183.98020955055676,80.05104665841107)"><circle class="outline" cx="0" cy="0" r="25" fill="#F16667" stroke="#eb2728" stroke-width="2px"/><text text-anchor="middle" pointer-events="none" font-family="sans-serif" dy="1.5625" font-size="25" fill="#FFFFFF"/><text text-anchor="middle" pointer-events="none" y="5" font-size="10px" fill="#FFFFFF" font-family="sans-serif"> Rimbik</text></g><g class="node" transform="translate(102.15261088175524,13.744598129077698)"><circle class="outline" cx="0" cy="0" r="25" fill="#D9C8AE" stroke="#c0a378" stroke-width="2px"/><text text-anchor="middle" pointer-events="none" font-family="sans-serif" dy="1.5625" font-size="25" fill="#604A0E"/><text text-anchor="middle" pointer-events="none" y="5" font-size="10px" fill="#604A0E" font-family="sans-serif"> BhikeBh…</text></g><g class="node" transform="translate(3.362757006084781,51.4284533609322)"><circle class="outline" cx="0" cy="0" r="25" fill="#8DCC93" stroke="#5db665" stroke-width="2px"/><text text-anchor="middle" pointer-events="none" font-family="sans-serif" dy="1.5625" font-size="25" fill="#604A0E"/><text text-anchor="middle" pointer-events="none" y="5" font-size="10px" fill="#604A0E" font-family="sans-serif"> Sandak…</text></g></g></svg>