<svg xmlns="http://www.w3.org/2000/svg" width="436.5804138183594" height="313.35528564453125" viewBox="-119.61727142333984 -50.62603759765625 436.5804138183594 313.35528564453125"><title>Neo4j Graph Visualization</title><desc>Created using Neo4j (http://www.neo4j.com/)</desc><g class="layer relationships"><g class="relationship" transform="translate(177.18810659424992 233.7292307324495) rotate(253.3348743202726)"><path class="outline" fill="#A5ABB6" stroke="none" d="M 21.40063509461097,12.933012701892217 L 21.90063509461097,12.06698729810778 A 62.377310735091584 62.377310735091584 0 0 0 22.038679666510525,12.146452540356513 L 21.540892723955174,13.01375188880629 A 63.377310735091584 63.377310735091584 0 0 1 21.40063509461097,12.933012701892217 Z M 81.2626208036985,14.817656271469545 L 80.81808742077692,13.921893986335647 A 62.377310735091584 62.377310735091584 0 0 0 80.96067647689722,13.850905327866153 L 79.62021859150809,11.167032630158955 L 87.44645575244553,11.17048237824272 L 82.74795365741605,17.429402258142417 L 81.40749577202692,14.745529560435218 A 63.377310735091584 63.377310735091584 0 0 1 81.2626208036985,14.817656271469545"/><text text-anchor="middle" pointer-events="none" font-size="8px" fill="#000000" x="51.190936984483365" y="23.895298817411827" transform="rotate(180 51.190936984483365 20.895298817411827)" font-family="sans-serif">PublicTransport</text></g><g class="relationship" transform="translate(145.69648171058452 128.52958041121934) rotate(287.9936194433208)"><path class="outline" fill="#A5ABB6" stroke="none" d="M 25 0.5 L 46.81020019347231 0.5 L 46.81020019347231 -0.5 L 25 -0.5 Z M 66.14613769347231 0.5 L 87.95633788694462 0.5 L 87.95633788694462 3.5 L 94.95633788694462 0 L 87.95633788694462 -3.5 L 87.95633788694462 -0.5 L 66.14613769347231 -0.5 Z"/><text text-anchor="middle" pointer-events="none" font-size="8px" fill="#000000" x="56.47816894347231" y="3" font-family="sans-serif">trek</text></g><g class="relationship" transform="translate(182.7523237401359 14.440196283125454) rotate(192.28244760235594)"><path class="outline" fill="#A5ABB6" stroke="none" d="M 25 0.5 L 46.23052781004401 0.5 L 46.23052781004401 -0.5 L 25 -0.5 Z M 65.56646531004401 0.5 L 86.79699312008802 0.5 L 86.79699312008802 3.5 L 93.79699312008802 0 L 86.79699312008802 -3.5 L 86.79699312008802 -0.5 L 65.56646531004401 -0.5 Z"/><text text-anchor="middle" pointer-events="none" font-size="8px" fill="#000000" x="55.89849656004401" y="3" transform="rotate(180 55.89849656004401 0)" font-family="sans-serif">trek</text></g><g class="relationship" transform="translate(177.18810659424992 233.7292307324495) rotate(253.3348743202726)"><path class="outline" fill="#A5ABB6" stroke="none" d="M 25 0.5 L 40.40017140833608 0.5 L 40.40017140833608 -0.5 L 25 -0.5 Z M 62.41189015833608 0.5 L 77.81206156667216 0.5 L 77.81206156667216 3.5 L 84.81206156667216 0 L 77.81206156667216 -3.5 L 77.81206156667216 -0.5 L 62.41189015833608 -0.5 Z"/><text text-anchor="middle" pointer-events="none" font-size="8px" fill="#000000" x="51.40603078333608" y="3" transform="rotate(180 51.40603078333608 0)" font-family="sans-serif">road</text></g><g class="relationship" transform="translate(177.18810659424992 233.7292307324495) rotate(253.3348743202726)"><path class="outline" fill="#A5ABB6" stroke="none" d="M 21.40063509461097,-12.933012701892217 L 21.90063509461097,-12.06698729810778 A 62.377310735091584 62.377310735091584 0 0 1 41.679263960180265,-19.3715257338257 L 41.496344460004416,-20.354653628077216 A 63.377310735091584 63.377310735091584 0 0 0 21.40063509461097,-12.933012701892217 Z M 60.90048665587244,-20.94075885768828 L 60.77723756083959,-19.94838309187496 A 62.377310735091584 62.377310735091584 0 0 1 80.96067647689722,-13.850905327866153 L 79.62021859150809,-11.167032630158955 L 87.44645575244553,-11.17048237824272 L 82.74795365741605,-17.429402258142417 L 81.40749577202692,-14.745529560435218 A 63.377310735091584 63.377310735091584 0 0 0 60.90048665587244,-20.94075885768828"/><text text-anchor="middle" pointer-events="none" font-size="8px" fill="#000000" x="51.19093698448336" y="-17.895298817411827" transform="rotate(180 51.19093698448336 -20.895298817411827)" font-family="sans-serif">trek</text></g><g class="relationship" transform="translate(177.18810659424992 233.7292307324495) rotate(320.25869696733486)"><path class="outline" fill="#A5ABB6" stroke="none" d="M 24.018736134675446,-6.953439040707552 L 24.277555179777966,-5.987513214418485 A 98.20490489171871 98.20490489171871 0 0 1 38.48326773229678,-8.69167834716886 L 38.36910248598549,-9.68514012123704 A 99.20490489171871 99.20490489171871 0 0 0 24.018736134675446,-6.953439040707552 Z M 57.76929835853251,-10.004622353661475 L 57.68790678339709,-9.007940151805244 A 98.20490489171871 98.20490489171871 0 0 1 71.97495657884416,-6.772993545644535 L 71.29433573668234,-3.8512209211552624 L 78.90586284301277,-5.671840351348499 L 72.88245103505992,-10.6686903782969 L 72.2018301928981,-7.746917753807626 A 99.20490489171871 99.20490489171871 0 0 0 57.76929835853251,-10.004622353661475"/><text text-anchor="middle" pointer-events="none" font-size="8px" fill="#000000" x="48.06960386226171" y="-6.820382801289199" font-family="sans-serif">trek</text></g><g class="relationship" transform="translate(256.5840975652519 167.71666726759037) rotate(286.0802713674299)"><path class="outline" fill="#A5ABB6" stroke="none" d="M 21.40063509461097,-12.933012701892217 L 21.90063509461097,-12.06698729810778 A 65.96506824536627 65.96506824536627 0 0 1 43.41263984060408,-19.899682389217546 L 43.238751907463104,-20.884447836777497 A 66.96506824536627 66.96506824536627 0 0 0 21.40063509461097,-12.933012701892217 Z M 62.64318022865095,-21.453490256494348 L 62.52729875171549,-20.4602272081012 A 65.96506824536627 65.96506824536627 0 0 1 84.46133450785538,-13.901604179575967 L 83.11616049027347,-11.220092131789764 L 90.94239162228683,-11.209783479849223 L 86.25489986463126,-17.47695357662424 L 84.90972584704934,-14.795441528838035 A 66.96506824536627 66.96506824536627 0 0 0 62.64318022865095,-21.453490256494348"/><text text-anchor="middle" pointer-events="none" font-size="8px" fill="#000000" x="52.93489275671212" y="-18.376069836631814" font-family="sans-serif">trek</text></g><g class="relationship" transform="translate(287.9631297963416 58.86079467581231) rotate(202.8897465500342)"><path class="outline" fill="#A5ABB6" stroke="none" d="M 21.40063509461097,12.933012701892217 L 21.90063509461097,12.06698729810778 A 66.90875462774108 66.90875462774108 0 0 0 43.86928654931131,20.037854655543768 L 43.697624022888974,21.023010469119612 A 67.90875462774108 67.90875462774108 0 0 1 21.40063509461097,12.933012701892217 Z M 63.10205550987169,21.587721478482322 L 62.987975327664586,20.594249932826585 A 66.90875462774108 66.90875462774108 0 0 0 85.38299261718934,13.91446148035054 L 84.03662260735548,11.233549733086198 L 91.86284836244512,11.21975008194891 L 87.17815263030117,17.489010476702997 L 85.83178262046731,14.808098729438656 A 67.90875462774108 67.90875462774108 0 0 1 63.10205550987169,21.587721478482322"/><text text-anchor="middle" pointer-events="none" font-size="8px" fill="#000000" x="53.394101768523086" y="24.502533346930505" transform="rotate(180 53.394101768523086 21.502533346930505)" font-family="sans-serif">trek</text></g><g class="relationship" transform="translate(287.9631297963416 58.86079467581231) rotate(202.8897465500342)"><path class="outline" fill="#A5ABB6" stroke="none" d="M 25 0.5 L 42.59603041982401 0.5 L 42.59603041982401 -0.5 L 25 -0.5 Z M 64.60774916982402 0.5 L 82.20377958964802 0.5 L 82.20377958964802 3.5 L 89.20377958964802 0 L 82.20377958964802 -3.5 L 82.20377958964802 -0.5 L 64.60774916982402 -0.5 Z"/><text text-anchor="middle" pointer-events="none" font-size="8px" fill="#000000" x="53.60188979482401" y="3" transform="rotate(180 53.60188979482401 0)" font-family="sans-serif">road</text></g><g class="relationship" transform="translate(287.9631297963416 58.86079467581231) rotate(202.8897465500342)"><path class="outline" fill="#A5ABB6" stroke="none" d="M 21.40063509461097,-12.933012701892217 L 21.90063509461097,-12.06698729810778 A 66.90875462774108 66.90875462774108 0 0 1 30.926398150527906,-16.41214672953903 L 30.56129474374853,-17.343113701218535 A 67.90875462774108 67.90875462774108 0 0 0 21.40063509461097,-12.933012701892217 Z M 76.43015704821978,-18.677997000822202 L 76.11981201604732,-17.72737301574405 A 66.90875462774108 66.90875462774108 0 0 1 85.38299261718934,-13.91446148035054 L 84.03662260735548,-11.233549733086198 L 91.86284836244512,-11.21975008194891 L 87.17815263030117,-17.489010476702997 L 85.83178262046731,-14.808098729438656 A 67.90875462774108 67.90875462774108 0 0 0 76.43015704821978,-18.677997000822202"/><text text-anchor="middle" pointer-events="none" font-size="8px" fill="#000000" x="53.394101768523086" y="-18.502533346930505" transform="rotate(180 53.394101768523086 -21.502533346930505)" font-family="sans-serif">twowheeler</text></g><g class="relationship" transform="translate(256.5840975652519 167.71666726759037) rotate(286.0802713674299)"><path class="outline" fill="#A5ABB6" stroke="none" d="M 25 0.5 L 42.13830330191928 0.5 L 42.13830330191928 -0.5 L 25 -0.5 Z M 64.15002205191928 0.5 L 81.28832535383856 0.5 L 81.28832535383856 3.5 L 88.28832535383856 0 L 81.28832535383856 -3.5 L 81.28832535383856 -0.5 L 64.15002205191928 -0.5 Z"/><text text-anchor="middle" pointer-events="none" font-size="8px" fill="#000000" x="53.14416267691928" y="3" font-family="sans-serif">road</text></g><g class="relationship" transform="translate(256.5840975652519 167.71666726759037) rotate(286.0802713674299)"><path class="outline" fill="#A5ABB6" stroke="none" d="M 21.40063509461097,12.933012701892217 L 21.90063509461097,12.06698729810778 A 65.96506824536627 65.96506824536627 0 0 0 30.485206764536372,16.226834007487682 L 30.11534491035006,17.15592076813916 A 66.96506824536627 66.96506824536627 0 0 1 21.40063509461097,12.933012701892217 Z M 75.9625280434114,18.500407273765916 L 75.6477466300799,17.551243082584527 A 65.96506824536627 65.96506824536627 0 0 0 84.46133450785538,13.901604179575967 L 83.11616049027347,11.220092131789764 L 90.94239162228683,11.209783479849223 L 86.25489986463126,17.47695357662424 L 84.90972584704934,14.795441528838035 A 66.96506824536627 66.96506824536627 0 0 1 75.9625280434114,18.500407273765916"/><text text-anchor="middle" pointer-events="none" font-size="8px" fill="#000000" x="52.93489275671212" y="24.376069836631814" font-family="sans-serif">twowheeler</text></g><g class="relationship" transform="translate(177.18810659424992 233.7292307324495) rotate(320.25869696733486)"><path class="outline" fill="#A5ABB6" stroke="none" d="M 24.018736134675446,6.953439040707552 L 24.277555179777966,5.987513214418485 A 98.20490489171871 98.20490489171871 0 0 0 37.1619278425682,8.530753976901352 L 37.03430766861164,9.52257709177583 A 99.20490489171871 99.20490489171871 0 0 1 24.018736134675446,6.953439040707552 Z M 59.10872211471371,9.886098329037296 L 59.01382895155053,8.890610866743117 A 98.20490489171871 98.20490489171871 0 0 0 71.97495657884416,6.772993545644535 L 71.29433573668234,3.8512209211552624 L 78.90586284301277,5.671840351348499 L 72.88245103505992,10.6686903782969 L 72.2018301928981,7.746917753807626 A 99.20490489171871 99.20490489171871 0 0 1 59.10872211471371,9.886098329037296"/><text text-anchor="middle" pointer-events="none" font-size="8px" fill="#000000" x="48.0696038622617" y="12.820382801289199" font-family="sans-serif">road</text></g><g class="relationship" transform="translate(145.69648171058452 128.52958041121934) rotate(208.43340282206503)"><path class="outline" fill="#A5ABB6" stroke="none" d="M 24.018736134675446,-6.953439040707552 L 24.277555179777966,-5.987513214418485 A 152.68652048993005 152.68652048993005 0 0 1 52.1575417459627,-10.745986338868676 L 52.081318954129465,-11.743077150181847 A 153.68652048993005 153.68652048993005 0 0 0 24.018736134675446,-6.953439040707552 Z M 71.46580820793245,-11.998664718966467 L 71.41590094495017,-10.999910862852943 A 152.68652048993005 152.68652048993005 0 0 1 99.41165604960874,-6.978168264582904 L 98.71187086905084,-4.060926296375337 L 106.3351848388527,-5.831543171315753 L 100.34470295701925,-10.867824222192993 L 99.64491777646136,-7.950582253985426 A 153.68652048993005 153.68652048993005 0 0 0 71.46580820793245,-11.998664718966467"/><text text-anchor="middle" pointer-events="none" font-size="8px" fill="#000000" x="61.77612156220251" y="-8.676866356154278" transform="rotate(180 61.77612156220251 -11.676866356154278)" font-family="sans-serif">trek</text></g><g class="relationship" transform="translate(30.810569087673347 66.32441354459132) rotate(229.13251367357452)"><path class="outline" fill="#A5ABB6" stroke="none" d="M 24.018736134675446,-6.953439040707552 L 24.277555179777966,-5.987513214418485 A 124.24924052274675 124.24924052274675 0 0 1 44.99358191243442,-9.6932360118157 L 44.901492471838935,-10.688986751173104 A 125.24924052274675 125.24924052274675 0 0 0 24.018736134675446,-6.953439040707552 Z M 64.29340041378141,-10.974473337671341 L 64.23066330324568,-9.976443250468733 A 124.24924052274675 124.24924052274675 0 0 1 85.0467994244013,-6.8821546367795765 L 84.3559821364057,-3.962776025738111 L 91.97381906483065,-5.756810733296737 L 85.96788914172878,-10.774659451501531 L 85.27707185373318,-7.855280840460065 A 125.24924052274675 125.24924052274675 0 0 0 64.29340041378141,-10.974473337671341"/><text text-anchor="middle" pointer-events="none" font-size="8px" fill="#000000" x="54.59927260033677" y="-7.707686813258363" transform="rotate(180 54.59927260033677 -10.707686813258363)" font-family="sans-serif">trek</text></g><g class="relationship" transform="translate(-45.287183065575235 -21.626034492935503) rotate(365.5069649063872)"><path class="outline" fill="#A5ABB6" stroke="none" d="M 24.018736134675446,6.953439040707552 L 24.277555179777966,5.987513214418485 A 116.64221316950609 116.64221316950609 0 0 0 43.086121381009114,9.405472976280379 L 42.98855241587463,10.400701742465614 A 117.64221316950609 117.64221316950609 0 0 1 24.018736134675446,6.953439040707552 Z M 62.38274602093348,10.695371523084674 L 62.31545755026714,9.69763796059648 A 116.64221316950609 116.64221316950609 0 0 0 81.21918090065746,6.852667842703081 L 80.53111783765232,3.93263886659206 L 88.14725902208403,5.733858858376238 L 82.13659831799765,10.746039810851109 L 81.4485352549925,7.826010834740087 A 117.64221316950609 117.64221316950609 0 0 1 62.38274602093348,10.695371523084674"/><text text-anchor="middle" pointer-events="none" font-size="8px" fill="#000000" x="52.687161830133114" y="13.448481514971604" font-family="sans-serif">trek</text></g><g class="relationship" transform="translate(-45.287183065575235 -21.626034492935503) rotate(365.5069649063872)"><path class="outline" fill="#A5ABB6" stroke="none" d="M 24.018736134675446,-6.953439040707552 L 24.277555179777966,-5.987513214418485 A 116.64221316950609 116.64221316950609 0 0 1 29.75024116512055,-7.313201499472129 L 29.538340691233664,-8.290492750413478 A 117.64221316950609 117.64221316950609 0 0 0 24.018736134675446,-6.953439040707552 Z M 75.89085825991904,-8.994759525369403 L 75.70874610585666,-8.011481760268026 A 116.64221316950609 116.64221316950609 0 0 1 81.21918090065746,-6.852667842703081 L 80.53111783765232,-3.93263886659206 L 88.14725902208403,-5.733858858376238 L 82.13659831799765,-10.746039810851109 L 81.4485352549925,-7.826010834740087 A 117.64221316950609 117.64221316950609 0 0 0 75.89085825991904,-8.994759525369403"/><text text-anchor="middle" pointer-events="none" font-size="8px" fill="#000000" x="52.68716183013307" y="-7.448481514971604" font-family="sans-serif">twowheeler</text></g><g class="relationship" transform="translate(30.810569087673347 66.32441354459132) rotate(229.13251367357452)"><path class="outline" fill="#A5ABB6" stroke="none" d="M 24.018736134675446,6.953439040707552 L 24.277555179777966,5.987513214418485 A 124.24924052274675 124.24924052274675 0 0 0 31.634969631363845,7.720890060028935 L 31.435365551444463,8.700766690671557 A 125.24924052274675 125.24924052274675 0 0 1 24.018736134675446,6.953439040707552 Z M 77.81221966412025,9.383524148720198 L 77.64154721446457,8.39819632767356 A 124.24924052274675 124.24924052274675 0 0 0 85.0467994244013,6.8821546367795765 L 84.3559821364057,3.962776025738111 L 91.97381906483065,5.756810733296737 L 85.96788914172878,10.774659451501531 L 85.27707185373318,7.855280840460065 A 125.24924052274675 125.24924052274675 0 0 1 77.81221966412025,9.383524148720198"/><text text-anchor="middle" pointer-events="none" font-size="8px" fill="#000000" x="54.59927260033682" y="13.707686813258363" transform="rotate(180 54.59927260033682 10.707686813258363)" font-family="sans-serif">twowheeler</text></g><g class="relationship" transform="translate(145.69648171058452 128.52958041121934) rotate(208.43340282206503)"><path class="outline" fill="#A5ABB6" stroke="none" d="M 24.018736134675446,6.953439040707552 L 24.277555179777966,5.987513214418485 A 152.68652048993005 152.68652048993005 0 0 0 38.73990255815697,9.120321572161004 L 38.57580272816246,10.106765308922377 A 153.68652048993005 153.68652048993005 0 0 1 24.018736134675446,6.953439040707552 Z M 85.0097719876486,10.719004566643491 L 84.87173751782643,9.728577141164521 A 152.68652048993005 152.68652048993005 0 0 0 99.41165604960874,6.978168264582904 L 98.71187086905084,4.060926296375337 L 106.3351848388527,5.831543171315753 L 100.34470295701925,10.867824222192993 L 99.64491777646136,7.950582253985426 A 153.68652048993005 153.68652048993005 0 0 1 85.0097719876486,10.719004566643491"/><text text-anchor="middle" pointer-events="none" font-size="8px" fill="#000000" x="61.776121562202555" y="14.676866356154278" transform="rotate(180 61.776121562202555 11.676866356154278)" font-family="sans-serif">twowheeler</text></g><g class="relationship" transform="translate(145.69648171058452 128.52958041121934) rotate(379.4631341059487)"><path class="outline" fill="#A5ABB6" stroke="none" d="M 25 0.5 L 45.63613639203292 0.5 L 45.63613639203292 -0.5 L 25 -0.5 Z M 64.97207389203291 0.5 L 85.60821028406583 0.5 L 85.60821028406583 3.5 L 92.60821028406583 0 L 85.60821028406583 -3.5 L 85.60821028406583 -0.5 L 64.97207389203291 -0.5 Z"/><text text-anchor="middle" pointer-events="none" font-size="8px" fill="#000000" x="55.30410514203292" y="3" font-family="sans-serif">trek</text></g><g class="relationship" transform="translate(30.810569087673347 66.32441354459132) rotate(533.3810330057196)"><path class="outline" fill="#A5ABB6" stroke="none" d="M 24.018736134675446,-6.953439040707552 L 24.277555179777966,-5.987513214418485 A 136.0477933553432 136.0477933553432 0 0 1 47.96006311628087,-10.133830890564042 L 47.87531898523922,-11.13023363657291 A 137.0477933553432 137.0477933553432 0 0 0 24.018736134675446,-6.953439040707552 Z M 67.26393695834206,-11.402527323314843 L 67.20720768438818,-10.404137725273728 A 136.0477933553432 136.0477933553432 0 0 1 90.99681425678607,-6.924518268413068 L 90.30204005276399,-4.006078821478202 L 97.92230200030443,-5.789785033517352 L 91.92317986214884,-10.815770864326222 L 91.22840565812676,-7.897331417391356 A 137.0477933553432 137.0477933553432 0 0 0 67.26393695834206,-11.402527323314843"/><text text-anchor="middle" pointer-events="none" font-size="8px" fill="#000000" x="57.57182747307956" y="-8.109765426791313" transform="rotate(180 57.57182747307956 -11.109765426791313)" font-family="sans-serif">trek</text></g><g class="relationship" transform="translate(-90.61727328060906 80.41483100803065) rotate(293.9524515510279)"><path class="outline" fill="#A5ABB6" stroke="none" d="M 21.40063509461097,12.933012701892217 L 21.90063509461097,12.06698729810778 A 64.28168380565964 64.28168380565964 0 0 0 42.59878198332399,19.652452316790523 L 42.42077334483357,20.636481241478606 A 65.28168380565964 65.28168380565964 0 0 1 21.40063509461097,12.933012701892217 Z M 61.82512577025115,21.213409924383313 L 61.705894029906,20.2205434720876 A 64.28168380565964 64.28168380565964 0 0 0 82.8181419674462,13.87818182990502 L 81.47514673460483,11.195577907488335 L 89.30138365855869,11.19162694034464 L 84.60880227790133,17.454987059793936 L 83.26580704505997,14.77238313737725 A 65.28168380565964 65.28168380565964 0 0 1 61.82512577025115,21.213409924383313"/><text text-anchor="middle" pointer-events="none" font-size="8px" fill="#000000" x="52.11624381317887" y="24.150485811315292" font-family="sans-serif">trek</text></g><g class="relationship" transform="translate(-90.61727328060906 80.41483100803065) rotate(293.9524515510279)"><path class="outline" fill="#A5ABB6" stroke="none" d="M 25 0.5 L 41.32234879768222 0.5 L 41.32234879768222 -0.5 L 25 -0.5 Z M 63.33406754768222 0.5 L 79.65641634536443 0.5 L 79.65641634536443 3.5 L 86.65641634536443 0 L 79.65641634536443 -3.5 L 79.65641634536443 -0.5 L 63.33406754768222 -0.5 Z"/><text text-anchor="middle" pointer-events="none" font-size="8px" fill="#000000" x="52.32820817268222" y="3" font-family="sans-serif">road</text></g><g class="relationship" transform="translate(-90.61727328060906 80.41483100803065) rotate(293.9524515510279)"><path class="outline" fill="#A5ABB6" stroke="none" d="M 21.40063509461097,-12.933012701892217 L 21.90063509461097,-12.06698729810778 A 64.28168380565964 64.28168380565964 0 0 1 29.700485032563567,-15.892382155592536 L 29.321823639086908,-16.817917432656742 A 65.28168380565964 65.28168380565964 0 0 0 21.40063509461097,-12.933012701892217 Z M 75.12780325542266,-18.17981722244803 L 74.80479801063218,-17.233420047981703 A 64.28168380565964 64.28168380565964 0 0 1 82.8181419674462,-13.87818182990502 L 81.47514673460483,-11.195577907488335 L 89.30138365855869,-11.19162694034464 L 84.60880227790133,-17.454987059793936 L 83.26580704505997,-14.77238313737725 A 65.28168380565964 65.28168380565964 0 0 0 75.12780325542266,-18.17981722244803"/><text text-anchor="middle" pointer-events="none" font-size="8px" fill="#000000" x="52.11624381317886" y="-18.150485811315292" font-family="sans-serif">twowheeler</text></g><g class="relationship" transform="translate(-90.61727328060906 80.41483100803065) rotate(382.4996987817184)"><path class="outline" fill="#A5ABB6" stroke="none" d="M 25 0.5 L 36.40129493535261 0.5 L 36.40129493535261 -0.5 L 25 -0.5 Z M 55.73723243535261 0.5 L 67.13852737070522 0.5 L 67.13852737070522 3.5 L 74.13852737070522 0 L 67.13852737070522 -3.5 L 67.13852737070522 -0.5 L 55.73723243535261 -0.5 Z"/><text text-anchor="middle" pointer-events="none" font-size="8px" fill="#000000" x="46.06926368535261" y="3" font-family="sans-serif">trek</text></g><g class="relationship" transform="translate(0.9749824923423956 118.35302141893862) rotate(296.95655375086193)"><path class="outline" fill="#A5ABB6" stroke="none" d="M 25 0.5 L 59.297707016447234 0.5 L 59.297707016447234 -0.5 L 25 -0.5 Z M 78.63364451644723 0.5 L 112.93135153289447 0.5 L 112.93135153289447 3.5 L 119.93135153289447 0 L 112.93135153289447 -3.5 L 112.93135153289447 -0.5 L 78.63364451644723 -0.5 Z"/><text text-anchor="middle" pointer-events="none" font-size="8px" fill="#000000" x="68.96567576644723" y="3" font-family="sans-serif">trek</text></g><g class="relationship" transform="translate(30.810569087673347 66.32441354459132) rotate(533.3810330057196)"><path class="outline" fill="#A5ABB6" stroke="none" d="M 24.018736134675446,6.953439040707552 L 24.277555179777966,5.987513214418485 A 136.0477933553432 136.0477933553432 0 0 0 34.57287145266499,8.322110393730554 L 34.38972666893029,9.305196345308929 A 137.0477933553432 137.0477933553432 0 0 1 24.018736134675446,6.953439040707552 Z M 80.79546222009438,9.956918342035351 L 80.63999713339621,8.96907695455559 A 136.0477933553432 136.0477933553432 0 0 0 90.99681425678607,6.924518268413068 L 90.30204005276399,4.006078821478202 L 97.92230200030443,5.789785033517352 L 91.92317986214884,10.815770864326222 L 91.22840565812676,7.897331417391356 A 137.0477933553432 137.0477933553432 0 0 1 80.79546222009438,9.956918342035351"/><text text-anchor="middle" pointer-events="none" font-size="8px" fill="#000000" x="57.5718274730796" y="14.109765426791313" transform="rotate(180 57.5718274730796 11.109765426791313)" font-family="sans-serif">twowheeler</text></g></g><g class="layer nodes"><g class="node" transform="translate(177.18810659424992,233.7292307324495)"><circle class="outline" cx="0" cy="0" r="25" fill="#F16667" stroke="#eb2728" stroke-width="2px"/><text text-anchor="middle" pointer-events="none" font-family="sans-serif" dy="1.5625" font-size="25" fill="#FFFFFF"/><text text-anchor="middle" pointer-events="none" y="5" font-size="10px" fill="#FFFFFF" font-family="sans-serif"> Darjeeling</text></g><g class="node" transform="translate(145.69648171058452,128.52958041121934)"><circle class="outline" cx="0" cy="0" r="25" fill="#F16667" stroke="#eb2728" stroke-width="2px"/><text text-anchor="middle" pointer-events="none" font-family="sans-serif" dy="1.5625" font-size="25" fill="#FFFFFF"/><text text-anchor="middle" pointer-events="none" y="5" font-size="10px" fill="#FFFFFF" font-family="sans-serif"> Rimbik</text></g><g class="node" transform="translate(182.7523237401359,14.440196283125454)"><circle class="outline" cx="0" cy="0" r="25" fill="#D9C8AE" stroke="#c0a378" stroke-width="2px"/><text text-anchor="middle" pointer-events="none" font-family="sans-serif" dy="1.5625" font-size="25" fill="#604A0E"/><text text-anchor="middle" pointer-events="none" y="5" font-size="10px" fill="#604A0E" font-family="sans-serif"> BhikeBh…</text></g><g class="node" transform="translate(66.67449996258792,-10.831614127740577)"><circle class="outline" cx="0" cy="0" r="25" fill="#8DCC93" stroke="#5db665" stroke-width="2px"/><text text-anchor="middle" pointer-events="none" font-family="sans-serif" dy="1.5625" font-size="25" fill="#604A0E"/><text text-anchor="middle" pointer-events="none" y="5" font-size="10px" fill="#604A0E" font-family="sans-serif"> Sandak…</text></g><g class="node" transform="translate(256.5840975652519,167.71666726759037)"><circle class="outline" cx="0" cy="0" r="25" fill="#D9C8AE" stroke="#c0a378" stroke-width="2px"/><text text-anchor="middle" pointer-events="none" font-family="sans-serif" dy="1.5625" font-size="25" fill="#604A0E"/><text text-anchor="middle" pointer-events="none" y="5" font-size="10px" fill="#604A0E" font-family="sans-serif"> Tumbling</text></g><g class="node" transform="translate(287.9631297963416,58.86079467581231)"><circle class="outline" cx="0" cy="0" r="25" fill="#D9C8AE" stroke="#c0a378" stroke-width="2px"/><text text-anchor="middle" pointer-events="none" font-family="sans-serif" dy="1.5625" font-size="25" fill="#604A0E"/><text text-anchor="middle" pointer-events="none" y="5" font-size="10px" fill="#604A0E" font-family="sans-serif"> Gairibus</text></g><g class="node" transform="translate(30.810569087673347,66.32441354459132)"><circle class="outline" cx="0" cy="0" r="25" fill="#D9C8AE" stroke="#c0a378" stroke-width="2px"/><text text-anchor="middle" pointer-events="none" font-family="sans-serif" dy="1.5625" font-size="25" fill="#604A0E"/><text text-anchor="middle" pointer-events="none" y="5" font-size="10px" fill="#604A0E" font-family="sans-serif"> Sirikhola</text></g><g class="node" transform="translate(-45.287183065575235,-21.626034492935503)"><circle class="outline" cx="0" cy="0" r="25" fill="#D9C8AE" stroke="#c0a378" stroke-width="2px"/><text text-anchor="middle" pointer-events="none" font-family="sans-serif" dy="1.5625" font-size="25" fill="#604A0E"/><text text-anchor="middle" pointer-events="none" y="5" font-size="10px" fill="#604A0E" font-family="sans-serif"> Gurdum</text></g><g class="node" transform="translate(-90.61727328060906,80.41483100803065)"><circle class="outline" cx="0" cy="0" r="25" fill="#D9C8AE" stroke="#c0a378" stroke-width="2px"/><text text-anchor="middle" pointer-events="none" font-family="sans-serif" dy="1.5625" font-size="25" fill="#604A0E"/><text text-anchor="middle" pointer-events="none" y="5" font-size="10px" fill="#604A0E" font-family="sans-serif"> Rammam</text></g><g class="node" transform="translate(0.9749824923423956,118.35302141893862)"><circle class="outline" cx="0" cy="0" r="25" fill="#8DCC93" stroke="#5db665" stroke-width="2px"/><text text-anchor="middle" pointer-events="none" font-family="sans-serif" dy="1.5625" font-size="25" fill="#604A0E"/><text text-anchor="middle" pointer-events="none" y="5" font-size="10px" fill="#604A0E" font-family="sans-serif"> Sabargr…</text></g></g></svg>