<svg xmlns="http://www.w3.org/2000/svg" width="264.73828125" height="256.57867431640625" viewBox="-32.49078369140625 -17.953800201416016 264.73828125 256.57867431640625"><title>Neo4j Graph Visualization</title><desc>Created using Neo4j (http://www.neo4j.com/)</desc><g class="layer relationships"><g class="relationship" transform="translate(92.02766827018468 209.62485819130598) rotate(274.1594420920947)"><path class="outline" fill="#A5ABB6" stroke="none" d="M 25 0.5 L 28.011868877097378 0.5 L 28.011868877097378 -0.5 L 25 -0.5 Z M 74.90249387709738 0.5 L 77.91436275419476 0.5 L 77.91436275419476 3.5 L 84.91436275419476 0 L 77.91436275419476 -3.5 L 77.91436275419476 -0.5 L 74.90249387709738 -0.5 Z"/><text text-anchor="middle" pointer-events="none" font-size="8px" fill="#000000" x="51.45718137709738" y="3" font-family="sans-serif">DIRECTED</text></g><g class="relationship" transform="translate(203.24749063842032 144.0923104574145) rotate(203.1251245234297)"><path class="outline" fill="#A5ABB6" stroke="none" d="M 25 0.5 L 34.74744192058861 0.5 L 34.74744192058861 -0.5 L 25 -0.5 Z M 70.52087942058861 0.5 L 80.26832134117721 0.5 L 80.26832134117721 3.5 L 87.26832134117721 0 L 80.26832134117721 -3.5 L 80.26832134117721 -0.5 L 70.52087942058861 -0.5 Z"/><text text-anchor="middle" pointer-events="none" font-size="8px" fill="#000000" x="52.63416067058861" y="3" transform="rotate(180 52.63416067058861 0)" font-family="sans-serif">WROTE</text></g><g class="relationship" transform="translate(167.67131932097394 11.04619970987066) rotate(487.26194624871687)"><path class="outline" fill="#A5ABB6" stroke="none" d="M 25 0.5 L 29.602975018447758 0.5 L 29.602975018447758 -0.5 L 25 -0.5 Z M 75.16547501844775 0.5 L 79.76845003689552 0.5 L 79.76845003689552 3.5 L 86.76845003689552 0 L 79.76845003689552 -3.5 L 79.76845003689552 -0.5 L 75.16547501844775 -0.5 Z"/><text text-anchor="middle" pointer-events="none" font-size="8px" fill="#000000" x="52.38422501844776" y="3" transform="rotate(180 52.38422501844776 0)" font-family="sans-serif">ACTED_IN</text></g><g class="relationship" transform="translate(29.948875407031828 12.295323909539773) rotate(411.3850803186425)"><path class="outline" fill="#A5ABB6" stroke="none" d="M 25 0.5 L 34.736517610938925 0.5 L 34.736517610938925 -0.5 L 25 -0.5 Z M 70.50995511093893 0.5 L 80.24647272187785 0.5 L 80.24647272187785 3.5 L 87.24647272187785 0 L 80.24647272187785 -3.5 L 80.24647272187785 -0.5 L 70.50995511093893 -0.5 Z"/><text text-anchor="middle" pointer-events="none" font-size="8px" fill="#000000" x="52.623236360938925" y="3" font-family="sans-serif">WROTE</text></g><g class="relationship" transform="translate(-3.490782783642336 136.98522291077757) rotate(340.3342813122805)"><path class="outline" fill="#A5ABB6" stroke="none" d="M 25 0.5 L 28.66929293946967 0.5 L 28.66929293946967 -0.5 L 25 -0.5 Z M 74.23179293946967 0.5 L 77.90108587893934 0.5 L 77.90108587893934 3.5 L 84.90108587893934 0 L 77.90108587893934 -3.5 L 77.90108587893934 -0.5 L 74.23179293946967 -0.5 Z"/><text text-anchor="middle" pointer-events="none" font-size="8px" fill="#000000" x="51.45054293946967" y="3" font-family="sans-serif">ACTED_IN</text></g></g><g class="layer nodes"><g class="node" transform="translate(100,100.00000213005272)"><circle class="outline" cx="0" cy="0" r="25" fill="#57C7E3" stroke="#23b3d7" stroke-width="2px"/><text text-anchor="middle" pointer-events="none" font-family="sans-serif" dy="1.5625" font-size="25" fill="#FFFFFF"/><text text-anchor="middle" pointer-events="none" font-family="sans-serif" dy="1.5625" font-size="25" fill="#FFFFFF"/><text text-anchor="middle" pointer-events="none" font-family="sans-serif" dy="1.5625" font-size="25" fill="#FFFFFF"/><text text-anchor="middle" pointer-events="none" y="-5" font-size="10px" fill="#FFFFFF" font-family="sans-serif"> Captain</text><text text-anchor="middle" pointer-events="none" y="5" font-size="10px" fill="#FFFFFF" font-family="sans-serif"> America:</text><text text-anchor="middle" pointer-events="none" y="15" font-size="10px" fill="#FFFFFF" font-family="sans-serif"> The Fi…</text></g><g class="node" transform="translate(92.02766827018468,209.62485819130598)"><circle class="outline" cx="0" cy="0" r="25" fill="#F79767" stroke="#f36924" stroke-width="2px"/><text text-anchor="middle" pointer-events="none" font-family="sans-serif" dy="1.5625" font-size="25" fill="#FFFFFF"/><text text-anchor="middle" pointer-events="none" font-family="sans-serif" dy="1.5625" font-size="25" fill="#FFFFFF"/><text text-anchor="middle" pointer-events="none" y="0" font-size="10px" fill="#FFFFFF" font-family="sans-serif"> Joe</text><text text-anchor="middle" pointer-events="none" y="10" font-size="10px" fill="#FFFFFF" font-family="sans-serif"> Johnston</text></g><g class="node" transform="translate(203.24749063842032,144.0923104574145)"><circle class="outline" cx="0" cy="0" r="25" fill="#F79767" stroke="#f36924" stroke-width="2px"/><text text-anchor="middle" pointer-events="none" font-family="sans-serif" dy="1.5625" font-size="25" fill="#FFFFFF"/><text text-anchor="middle" pointer-events="none" y="5" font-size="10px" fill="#FFFFFF" font-family="sans-serif"> Christop…</text></g><g class="node" transform="translate(167.67131932097394,11.04619970987066)"><circle class="outline" cx="0" cy="0" r="25" fill="#F79767" stroke="#f36924" stroke-width="2px"/><text text-anchor="middle" pointer-events="none" font-family="sans-serif" dy="1.5625" font-size="25" fill="#FFFFFF"/><text text-anchor="middle" pointer-events="none" font-family="sans-serif" dy="1.5625" font-size="25" fill="#FFFFFF"/><text text-anchor="middle" pointer-events="none" y="0" font-size="10px" fill="#FFFFFF" font-family="sans-serif"> Chris</text><text text-anchor="middle" pointer-events="none" y="10" font-size="10px" fill="#FFFFFF" font-family="sans-serif"> Evans</text></g><g class="node" transform="translate(29.948875407031828,12.295323909539773)"><circle class="outline" cx="0" cy="0" r="25" fill="#F79767" stroke="#f36924" stroke-width="2px"/><text text-anchor="middle" pointer-events="none" font-family="sans-serif" dy="1.5625" font-size="25" fill="#FFFFFF"/><text text-anchor="middle" pointer-events="none" font-family="sans-serif" dy="1.5625" font-size="25" fill="#FFFFFF"/><text text-anchor="middle" pointer-events="none" y="0" font-size="10px" fill="#FFFFFF" font-family="sans-serif"> Stephen</text><text text-anchor="middle" pointer-events="none" y="10" font-size="10px" fill="#FFFFFF" font-family="sans-serif"> McFeely</text></g><g class="node" transform="translate(-3.490782783642336,136.98522291077757)"><circle class="outline" cx="0" cy="0" r="25" fill="#F79767" stroke="#f36924" stroke-width="2px"/><text text-anchor="middle" pointer-events="none" font-family="sans-serif" dy="1.5625" font-size="25" fill="#FFFFFF"/><text text-anchor="middle" pointer-events="none" font-family="sans-serif" dy="1.5625" font-size="25" fill="#FFFFFF"/><text text-anchor="middle" pointer-events="none" y="0" font-size="10px" fill="#FFFFFF" font-family="sans-serif"> Hugo</text><text text-anchor="middle" pointer-events="none" y="10" font-size="10px" fill="#FFFFFF" font-family="sans-serif"> Weaving</text></g></g></svg>