<svg xmlns="http://www.w3.org/2000/svg" width="434.2985534667969" height="226.09603881835938" viewBox="-131.88589477539062 -22.438268661499023 434.2985534667969 226.09603881835938"><title>Neo4j Graph Visualization</title><desc>Created using Neo4j (http://www.neo4j.com/)</desc><g class="layer relationships"><g class="relationship" transform="translate(231.24590492099023 174.65775352473682) rotate(182.112012369787)"><path class="outline" fill="#A5ABB6" stroke="none" d="M 21.40063509461097,12.933012701892217 L 21.90063509461097,12.06698729810778 A 60.91079091968839 60.91079091968839 0 0 0 40.97206587199776,19.154223343157092 L 40.78517017567579,20.13660310612879 A 61.91079091968839 61.91079091968839 0 0 1 21.40063509461097,12.933012701892217 Z M 60.18904580903377,20.729966399276556 L 60.062524807796045,19.73800247037299 A 60.91079091968839 60.91079091968839 0 0 0 79.53136613099515,13.829313598296762 L 78.19291681029739,11.144438663421077 L 86.01914919915471,11.153744339147947 L 81.31596522525882,17.409146844797675 L 79.97751590456106,14.72427190992199 A 61.91079091968839 61.91079091968839 0 0 1 60.18904580903377,20.729966399276556"/><text text-anchor="middle" pointer-events="none" font-size="8px" fill="#000000" x="50.47898884885348" y="23.6987930046755" transform="rotate(180 50.47898884885348 20.6987930046755)" font-family="sans-serif">trek</text></g><g class="relationship" transform="translate(122.92643053246591 170.663118235641) rotate(321.62546008535344)"><path class="outline" fill="#A5ABB6" stroke="none" d="M 25 0.5 L 38.3218413382569 0.5 L 38.3218413382569 -0.5 L 25 -0.5 Z M 57.6577788382569 0.5 L 70.9796201765138 0.5 L 70.9796201765138 3.5 L 77.9796201765138 0 L 70.9796201765138 -3.5 L 70.9796201765138 -0.5 L 57.6577788382569 -0.5 Z"/><text text-anchor="middle" pointer-events="none" font-size="8px" fill="#000000" x="47.9898100882569" y="3" font-family="sans-serif">trek</text></g><g class="relationship" transform="translate(203.65930101947086 106.73342408161321) rotate(200.0438493765775)"><path class="outline" fill="#A5ABB6" stroke="none" d="M 25 0.5 L 56.429475278210006 0.5 L 56.429475278210006 -0.5 L 25 -0.5 Z M 75.76541277821 0.5 L 107.19488805642001 0.5 L 107.19488805642001 3.5 L 114.19488805642001 0 L 107.19488805642001 -3.5 L 107.19488805642001 -0.5 L 75.76541277821 -0.5 Z"/><text text-anchor="middle" pointer-events="none" font-size="8px" fill="#000000" x="66.09744402821" y="3" transform="rotate(180 66.09744402821 0)" font-family="sans-serif">trek</text></g><g class="relationship" transform="translate(231.24590492099023 174.65775352473682) rotate(182.112012369787)"><path class="outline" fill="#A5ABB6" stroke="none" d="M 25 0.5 L 39.6906941198927 0.5 L 39.6906941198927 -0.5 L 25 -0.5 Z M 61.7024128698927 0.5 L 76.3931069897854 0.5 L 76.3931069897854 3.5 L 83.3931069897854 0 L 76.3931069897854 -3.5 L 76.3931069897854 -0.5 L 61.7024128698927 -0.5 Z"/><text text-anchor="middle" pointer-events="none" font-size="8px" fill="#000000" x="50.6965534948927" y="3" transform="rotate(180 50.6965534948927 0)" font-family="sans-serif">road</text></g><g class="relationship" transform="translate(231.24590492099023 174.65775352473682) rotate(182.112012369787)"><path class="outline" fill="#A5ABB6" stroke="none" d="M 21.40063509461097,-12.933012701892217 L 21.90063509461097,-12.06698729810778 A 60.91079091968839 60.91079091968839 0 0 1 21.971070899884037,-12.107590777029145 L 21.47222727635214,-12.974282786489006 A 61.91079091968839 61.91079091968839 0 0 0 21.40063509461097,-12.933012701892217 Z M 79.90353580180178,-14.761090448252716 L 79.45858097505628,-13.865537433542876 A 60.91079091968839 60.91079091968839 0 0 1 79.53136613099515,-13.829313598296762 L 78.19291681029739,-11.144438663421077 L 86.01914919915471,-11.153744339147947 L 81.31596522525882,-17.409146844797675 L 79.97751590456106,-14.72427190992199 A 61.91079091968839 61.91079091968839 0 0 0 79.90353580180178,-14.761090448252716"/><text text-anchor="middle" pointer-events="none" font-size="8px" fill="#000000" x="50.47898884885348" y="-17.6987930046755" transform="rotate(180 50.47898884885348 -20.6987930046755)" font-family="sans-serif">PublicTransp…</text></g><g class="relationship" transform="translate(231.24590492099023 174.65775352473682) rotate(246.0335845850654)"><path class="outline" fill="#A5ABB6" stroke="none" d="M 24.018736134675446,-6.953439040707552 L 24.277555179777966,-5.987513214418485 A 157.53398257380488 157.53398257380488 0 0 1 52.05353426777964,-10.81830861569452 L 51.971032602801685,-11.814899542442248 A 158.53398257380488 158.53398257380488 0 0 0 24.018736134675446,-6.953439040707552 Z M 74.0326977878612,-12.100684362081296 L 73.97603897237379,-11.102290763029544 A 157.53398257380488 157.53398257380488 0 0 1 101.86783217314242,-6.992610659706051 L 101.16669807907165,-4.0756925974129805 L 108.79083000083804,-5.842784117256429 L 102.80267763190345,-10.881834742763477 L 102.10154353783268,-7.964916680470408 A 158.53398257380488 158.53398257380488 0 0 0 74.0326977878612,-12.100684362081296"/><text text-anchor="middle" pointer-events="none" font-size="8px" fill="#000000" x="63.003363912575416" y="-8.842095820866945" transform="rotate(180 63.003363912575416 -11.842095820866945)" font-family="sans-serif">road</text></g><g class="relationship" transform="translate(177.18115732576214 53.03452965617222) rotate(336.6814227374216)"><path class="outline" fill="#A5ABB6" stroke="none" d="M 21.40063509461097,-12.933012701892217 L 21.90063509461097,-12.06698729810778 A 57.182147309627254 57.182147309627254 0 0 1 37.88094903934478,-18.32004282064861 L 37.66041238055518,-19.295421507174993 A 58.182147309627254 58.182147309627254 0 0 0 21.40063509461097,-12.933012701892217 Z M 59.71747161453953,-19.991835550108526 L 59.55890471228997,-19.004487314929577 A 57.182147309627254 57.182147309627254 0 0 1 75.90185560407824,-13.771983775625541 L 74.56873951539427,-11.084456753604748 L 82.39493800357408,-11.109300739033074 L 77.67934372232352,-17.35535313831993 L 76.34622763363956,-14.667826116299137 A 58.182147309627254 58.182147309627254 0 0 0 59.71747161453953,-19.991835550108526"/><text text-anchor="middle" pointer-events="none" font-size="8px" fill="#000000" x="48.6714003654617" y="-17.199212985761775" font-family="sans-serif">road</text></g><g class="relationship" transform="translate(273.41262442999596 11.553718541776425) rotate(486.2361683124518)"><path class="outline" fill="#A5ABB6" stroke="none" d="M 21.40063509461097,12.933012701892217 L 21.90063509461097,12.06698729810778 A 70.82043571591151 70.82043571591151 0 0 0 44.456415894515,20.378768591403585 L 44.27490843938416,21.362158160054747 A 71.82043571591151 71.82043571591151 0 0 1 21.40063509461097,12.933012701892217 Z M 66.3442927316752,21.98475719210667 L 66.218514606145,20.99269879506639 A 70.82043571591151 70.82043571591151 0 0 0 89.20701559986004,13.965766475564203 L 87.85587327809117,11.287256735741513 L 95.6820620464078,11.259519348073947 L 91.00853869555186,17.53711279532779 L 89.65739637378299,14.858603055505101 A 71.82043571591151 71.82043571591151 0 0 1 66.3442927316752,21.98475719210667"/><text text-anchor="middle" pointer-events="none" font-size="8px" fill="#000000" x="55.29963349549777" y="25.02676297992133" transform="rotate(180 55.29963349549777 22.02676297992133)" font-family="sans-serif">road</text></g><g class="relationship" transform="translate(273.41262442999596 11.553718541776425) rotate(486.2361683124518)"><path class="outline" fill="#569480" stroke="none" d="M 25 0.5 L 32.2690663974651 0.5 L 32.2690663974651 -0.5 L 25 -0.5 Z M 78.73391014746511 0.5 L 86.0029765449302 0.5 L 86.0029765449302 3.5 L 93.0029765449302 0 L 86.0029765449302 -3.5 L 86.0029765449302 -0.5 L 78.73391014746511 -0.5 Z"/><text text-anchor="middle" pointer-events="none" font-size="8px" fill="#000000" x="55.5014882724651" y="3" transform="rotate(180 55.5014882724651 0)" font-family="sans-serif">twowheeler</text></g><g class="relationship" transform="translate(273.41262442999596 11.553718541776425) rotate(486.2361683124518)"><path class="outline" fill="#A5ABB6" stroke="none" d="M 21.40063509461097,-12.933012701892217 L 21.90063509461097,-12.06698729810778 A 70.82043571591151 70.82043571591151 0 0 1 45.76504496166629,-20.607635788455227 L 45.602015634408055,-21.594257011850374 A 71.82043571591151 71.82043571591151 0 0 0 21.40063509461097,-12.933012701892217 Z M 65.00621117897661,-22.141668448607774 L 64.89906398403548,-21.14742527985264 A 70.82043571591151 70.82043571591151 0 0 1 89.20701559986004,-13.965766475564203 L 87.85587327809117,-11.287256735741513 L 95.6820620464078,-11.259519348073947 L 91.00853869555186,-17.53711279532779 L 89.65739637378299,-14.858603055505101 A 71.82043571591151 71.82043571591151 0 0 0 65.00621117897661,-22.141668448607774"/><text text-anchor="middle" pointer-events="none" font-size="8px" fill="#000000" x="55.29963349549777" y="-19.02676297992133" transform="rotate(180 55.29963349549777 -22.02676297992133)" font-family="sans-serif">trek</text></g><g class="relationship" transform="translate(177.18115732576214 53.03452965617222) rotate(336.6814227374216)"><path class="outline" fill="#569480" stroke="none" d="M 25 0.5 L 25.663076385206992 0.5 L 25.663076385206992 -0.5 L 25 -0.5 Z M 72.12792013520699 0.5 L 72.79099652041398 0.5 L 72.79099652041398 3.5 L 79.79099652041398 0 L 72.79099652041398 -3.5 L 72.79099652041398 -0.5 L 72.12792013520699 -0.5 Z"/><text text-anchor="middle" pointer-events="none" font-size="8px" fill="#000000" x="48.89549826020699" y="3" font-family="sans-serif">twowheeler</text></g><g class="relationship" transform="translate(177.18115732576214 53.03452965617222) rotate(336.6814227374216)"><path class="outline" fill="#A5ABB6" stroke="none" d="M 21.40063509461097,12.933012701892217 L 21.90063509461097,12.06698729810778 A 57.182147309627254 57.182147309627254 0 0 0 39.17786345000789,18.59751116473977 L 38.98000719885742,19.577742210912398 A 58.182147309627254 58.182147309627254 0 0 1 21.40063509461097,12.933012701892217 Z M 58.38269527724486,20.19034900972033 L 58.24706971351606,19.1995888437552 A 57.182147309627254 57.182147309627254 0 0 0 75.90185560407824,13.771983775625541 L 74.56873951539427,11.084456753604748 L 82.39493800357408,11.109300739033074 L 77.67934372232352,17.35535313831993 L 76.34622763363956,14.667826116299137 A 58.182147309627254 58.182147309627254 0 0 1 58.38269527724486,20.19034900972033"/><text text-anchor="middle" pointer-events="none" font-size="8px" fill="#000000" x="48.67140036546172" y="23.199212985761775" font-family="sans-serif">trek</text></g><g class="relationship" transform="translate(122.92643053246591 170.663118235641) rotate(207.62290781358257)"><path class="outline" fill="#A5ABB6" stroke="none" d="M 24.018736134675446,-6.953439040707552 L 24.277555179777966,-5.987513214418485 A 148.00412812003495 148.00412812003495 0 0 1 50.97481127580192,-10.574639135088717 L 50.896374064876156,-11.571558190951407 A 149.00412812003495 149.00412812003495 0 0 0 24.018736134675446,-6.953439040707552 Z M 70.28196759999656,-11.831641359500878 L 70.2303037608393,-10.832976827376314 A 148.00412812003495 148.00412812003495 0 0 1 97.04101318473218,-6.963730459366815 L 96.34257649925507,-4.046165345032647 L 103.96507123242476,-5.820305712309251 L 97.97226209870166,-10.853817278479038 L 97.27382541322456,-7.936252164144872 A 149.00412812003495 149.00412812003495 0 0 0 70.28196759999656,-11.831641359500878"/><text text-anchor="middle" pointer-events="none" font-size="8px" fill="#000000" x="60.59164388220654" y="-8.517268209657203" transform="rotate(180 60.59164388220654 -11.517268209657203)" font-family="sans-serif">trek</text></g><g class="relationship" transform="translate(9.269677392590237 111.18693006679264) rotate(248.0142520792087)"><path class="outline" fill="#A5ABB6" stroke="none" d="M 24.018736134675446,-6.953439040707552 L 24.277555179777966,-5.987513214418485 A 117.33910457561878 117.33910457561878 0 0 1 43.260682966607796,-9.431973913835364 L 43.16364398498442,-10.427254495402934 A 118.33910457561878 118.33910457561878 0 0 0 24.018736134675446,-6.953439040707552 Z M 62.55762294353153,-10.72105927468894 L 62.49077713805856,-9.723295956917298 A 117.33910457561878 117.33910457561878 0 0 1 81.56953188464328,-6.855445298216768 L 80.88120939054919,-3.935477465495986 L 88.49751057667412,-5.736020784117368 L 82.48729521010206,-10.748735741844477 L 81.79897271600797,-7.828767909123695 A 118.33910457561878 118.33910457561878 0 0 0 62.55762294353153,-10.72105927468894"/><text text-anchor="middle" pointer-events="none" font-size="8px" fill="#000000" x="52.86217763600339" y="-7.472226499802787" transform="rotate(180 52.86217763600339 -10.472226499802787)" font-family="sans-serif">trek</text></g><g class="relationship" transform="translate(-32.97137649749934 6.561731320267635) rotate(386.3615338639635)"><path class="outline" fill="#569480" stroke="none" d="M 24.018736134675446,6.953439040707552 L 24.277555179777966,5.987513214418485 A 127.93000733189922 127.93000733189922 0 0 0 32.549736204861055,7.912167452573257 L 32.355578932219956,8.89313786674515 A 128.93000733189922 128.93000733189922 0 0 1 24.018736134675446,6.953439040707552 Z M 78.74245575997034,9.565920569228581 L 78.57682962929293,8.579731953984592 A 127.93000733189922 127.93000733189922 0 0 0 86.9013487309956,6.895791760991104 L 86.20925767677446,3.9767148567854123 L 93.82787668317906,5.767425451842751 L 87.82413680329043,10.787894299932027 L 87.13204574906929,7.868817395726335 A 128.93000733189922 128.93000733189922 0 0 1 78.74245575997034,9.565920569228581"/><text text-anchor="middle" pointer-events="none" font-size="8px" fill="#000000" x="55.525759350498674" y="13.833116487712147" font-family="sans-serif">twowheeler</text></g><g class="relationship" transform="translate(-32.97137649749934 6.561731320267635) rotate(386.3615338639635)"><path class="outline" fill="#A5ABB6" stroke="none" d="M 24.018736134675446,-6.953439040707552 L 24.277555179777966,-5.987513214418485 A 127.93000733189922 127.93000733189922 0 0 1 45.9180397191611,-9.831372643826285 L 45.82837945854328,-10.827345051910953 A 128.93000733189922 128.93000733189922 0 0 0 24.018736134675446,-6.953439040707552 Z M 65.21922763395106,-11.108584663867134 L 65.15848963913801,-10.110430920205332 A 127.93000733189922 127.93000733189922 0 0 1 86.9013487309956,-6.895791760991104 L 86.20925767677446,-3.9767148567854123 L 93.82787668317906,-5.767425451842751 L 87.82413680329043,-10.787894299932027 L 87.13204574906929,-7.868817395726335 A 128.93000733189922 128.93000733189922 0 0 0 65.21922763395106,-11.108584663867134"/><text text-anchor="middle" pointer-events="none" font-size="8px" fill="#000000" x="55.52575935049866" y="-7.833116487712147" font-family="sans-serif">trek</text></g><g class="relationship" transform="translate(9.269677392590237 111.18693006679264) rotate(248.0142520792087)"><path class="outline" fill="#569480" stroke="none" d="M 24.018736134675446,6.953439040707552 L 24.277555179777966,5.987513214418485 A 117.33910457561878 117.33910457561878 0 0 0 29.922551286035976,7.35130448914164 L 29.711840636908303,8.328852964842056 A 118.33910457561878 118.33910457561878 0 0 1 24.018736134675446,6.953439040707552 Z M 76.06681726219588,9.031097393657333 L 75.88581481875349,8.047614747410904 A 117.33910457561878 117.33910457561878 0 0 0 81.56953188464328,6.855445298216768 L 80.88120939054919,3.935477465495986 L 88.49751057667412,5.736020784117368 L 82.48729521010206,10.748735741844477 L 81.79897271600797,7.828767909123695 A 118.33910457561878 118.33910457561878 0 0 1 76.06681726219588,9.031097393657333"/><text text-anchor="middle" pointer-events="none" font-size="8px" fill="#000000" x="52.8621776360034" y="13.472226499802787" transform="rotate(180 52.8621776360034 10.472226499802787)" font-family="sans-serif">twowheeler</text></g><g class="relationship" transform="translate(122.92643053246591 170.663118235641) rotate(207.62290781358257)"><path class="outline" fill="#569480" stroke="none" d="M 24.018736134675446,6.953439040707552 L 24.277555179777966,5.987513214418485 A 148.00412812003495 148.00412812003495 0 0 0 37.56480542102639,8.900660651685087 L 37.39576258966889,9.886269357595637 A 149.00412812003495 149.00412812003495 0 0 1 24.018736134675446,6.953439040707552 Z M 83.82293238227612,10.509150746528519 L 83.68039210262609,9.51936174442892 A 148.00412812003495 148.00412812003495 0 0 0 97.04101318473218,6.963730459366815 L 96.34257649925507,4.046165345032647 L 103.96507123242476,5.820305712309251 L 97.97226209870166,10.853817278479038 L 97.27382541322456,7.936252164144872 A 149.00412812003495 149.00412812003495 0 0 1 83.82293238227612,10.509150746528519"/><text text-anchor="middle" pointer-events="none" font-size="8px" fill="#000000" x="60.591643882206604" y="14.517268209657203" transform="rotate(180 60.591643882206604 11.517268209657203)" font-family="sans-serif">twowheeler</text></g><g class="relationship" transform="translate(231.24590492099023 174.65775352473682) rotate(246.0335845850654)"><path class="outline" fill="#A5ABB6" stroke="none" d="M 24.018736134675446,6.953439040707552 L 24.277555179777966,5.987513214418485 A 157.53398257380488 157.53398257380488 0 0 0 53.38309530018266,10.922710293970368 L 53.309033471554166,11.91996394552558 A 158.53398257380488 158.53398257380488 0 0 1 24.018736134675446,6.953439040707552 Z M 72.69242435406437,12.171054641576177 L 72.64421970980281,11.172217161166259 A 157.53398257380488 157.53398257380488 0 0 0 101.86783217314242,6.992610659706051 L 101.16669807907165,4.0756925974129805 L 108.79083000083804,5.842784117256429 L 102.80267763190345,10.881834742763477 L 102.10154353783268,7.964916680470408 A 158.53398257380488 158.53398257380488 0 0 1 72.69242435406437,12.171054641576177"/><text text-anchor="middle" pointer-events="none" font-size="8px" fill="#000000" x="63.0033639125754" y="14.842095820866945" transform="rotate(180 63.0033639125754 11.842095820866945)" font-family="sans-serif">trek</text></g><g class="relationship" transform="translate(9.269677392590237 111.18693006679264) rotate(188.8540376578507)"><path class="outline" fill="#A5ABB6" stroke="none" d="M 24.018736134675446,-6.953439040707552 L 24.277555179777966,-5.987513214418485 A 118.68887172780529 118.68887172780529 0 0 1 43.59888917331328,-9.483219009396535 L 43.502859897059906,-10.478597519362594 A 119.68887172780529 119.68887172780529 0 0 0 24.018736134675446,-6.953439040707552 Z M 62.89642608748358,-10.770740828263897 L 62.83042220300562,-9.772921462229235 A 118.68887172780529 118.68887172780529 0 0 1 82.24828355175245,-6.860780164896646 L 81.55946275001159,-3.940929842861443 L 89.17607110345807,-5.7401733478405035 L 83.16671128740694,-10.753913927610249 L 82.47789048566608,-7.8340636055750466 A 119.68887172780529 119.68887172780529 0 0 0 62.89642608748358,-10.770740828263897"/><text text-anchor="middle" pointer-events="none" font-size="8px" fill="#000000" x="53.20124657332814" y="-7.518217461891581" transform="rotate(180 53.20124657332814 -10.518217461891581)" font-family="sans-serif">trek</text></g><g class="relationship" transform="translate(-102.88587744073811 93.71600413535464) rotate(402.45263268186557)"><path class="outline" fill="#A5ABB6" stroke="none" d="M 25 0.5 L 41.64066878759965 0.5 L 41.64066878759965 -0.5 L 25 -0.5 Z M 60.97660628759965 0.5 L 77.6172750751993 0.5 L 77.6172750751993 3.5 L 84.6172750751993 0 L 77.6172750751993 -3.5 L 77.6172750751993 -0.5 L 60.97660628759965 -0.5 Z"/><text text-anchor="middle" pointer-events="none" font-size="8px" fill="#000000" x="51.30863753759965" y="3" font-family="sans-serif">trek</text></g><g class="relationship" transform="translate(-22.006348879365007 167.7055226809023) rotate(311.12825406352863)"><path class="outline" fill="#A5ABB6" stroke="none" d="M 25 0.5 L 58.97355928523811 0.5 L 58.97355928523811 -0.5 L 25 -0.5 Z M 78.30949678523811 0.5 L 112.28305607047622 0.5 L 112.28305607047622 3.5 L 119.28305607047622 0 L 112.28305607047622 -3.5 L 112.28305607047622 -0.5 L 78.30949678523811 -0.5 Z"/><text text-anchor="middle" pointer-events="none" font-size="8px" fill="#000000" x="68.64152803523811" y="3" font-family="sans-serif">trek</text></g><g class="relationship" transform="translate(-102.88587744073811 93.71600413535464) rotate(308.73632332130467)"><path class="outline" fill="#A5ABB6" stroke="none" d="M 21.40063509461097,12.933012701892217 L 21.90063509461097,12.06698729810778 A 64.35906085909741 64.35906085909741 0 0 0 41.33227689703193,19.4143183991714 L 41.13420239972009,20.39450536782313 A 65.35906085909741 65.35906085909741 0 0 1 21.40063509461097,12.933012701892217 Z M 63.19957525428845,21.050133708938063 L 63.06004739678467,20.059915562780148 A 64.35906085909741 64.35906085909741 0 0 0 82.89364584796311,13.87927239854039 L 81.55054916790657,11.196719266164239 L 89.37678593685023,11.192472333804494 L 84.68444142137183,17.45600990837526 L 83.34134474131528,14.773456775999108 A 65.35906085909741 65.35906085909741 0 0 1 63.19957525428845,21.050133708938063"/><text text-anchor="middle" pointer-events="none" font-size="8px" fill="#000000" x="52.153858635510915" y="24.160854628517598" font-family="sans-serif">road</text></g><g class="relationship" transform="translate(-102.88587744073811 93.71600413535464) rotate(308.73632332130467)"><path class="outline" fill="#569480" stroke="none" d="M 25 0.5 L 29.13327581165909 0.5 L 29.13327581165909 -0.5 L 25 -0.5 Z M 75.59811956165909 0.5 L 79.73139537331818 0.5 L 79.73139537331818 3.5 L 86.73139537331818 0 L 79.73139537331818 -3.5 L 79.73139537331818 -0.5 L 75.59811956165909 -0.5 Z"/><text text-anchor="middle" pointer-events="none" font-size="8px" fill="#000000" x="52.36569768665909" y="3" font-family="sans-serif">twowheeler</text></g><g class="relationship" transform="translate(-102.88587744073811 93.71600413535464) rotate(308.73632332130467)"><path class="outline" fill="#A5ABB6" stroke="none" d="M 21.40063509461097,-12.933012701892217 L 21.90063509461097,-12.06698729810778 A 64.35906085909741 64.35906085909741 0 0 1 42.636170110809914,-19.663838220516674 L 42.45835528162208,-20.647902185165776 A 65.35906085909741 65.35906085909741 0 0 0 21.40063509461097,-12.933012701892217 Z M 61.86271332426368,-21.224463803124706 L 61.74363958455861,-20.2315783895383 A 64.35906085909741 64.35906085909741 0 0 1 82.89364584796311,-13.87927239854039 L 81.55054916790657,-11.196719266164239 L 89.37678593685023,-11.192472333804494 L 84.68444142137183,-17.45600990837526 L 83.34134474131528,-14.773456775999108 A 65.35906085909741 65.35906085909741 0 0 0 61.86271332426368,-21.224463803124706"/><text text-anchor="middle" pointer-events="none" font-size="8px" fill="#000000" x="52.15385863551093" y="-18.160854628517598" font-family="sans-serif">trek</text></g><g class="relationship" transform="translate(9.269677392590237 111.18693006679264) rotate(188.8540376578507)"><path class="outline" fill="#569480" stroke="none" d="M 24.018736134675446,6.953439040707552 L 24.277555179777966,5.987513214418485 A 118.68887172780529 118.68887172780529 0 0 0 30.25649939383903,7.424651933631779 L 30.04805528386752,8.402686213715143 A 119.68887172780529 119.68887172780529 0 0 1 24.018736134675446,6.953439040707552 Z M 76.40765427759746,9.10104393278452 L 76.22876414066286,8.117174877011593 A 118.68887172780529 118.68887172780529 0 0 0 82.24828355175245,6.860780164896646 L 81.55946275001159,3.940929842861443 L 89.17607110345807,5.7401733478405035 L 83.16671128740694,10.753913927610249 L 82.47789048566608,7.8340636055750466 A 119.68887172780529 119.68887172780529 0 0 1 76.40765427759746,9.10104393278452"/><text text-anchor="middle" pointer-events="none" font-size="8px" fill="#000000" x="53.2012465733282" y="13.518217461891581" transform="rotate(180 53.2012465733282 10.518217461891581)" font-family="sans-serif">twowheeler</text></g><g class="relationship" transform="translate(122.92643053246591 170.663118235641) rotate(294.76092758408794)"><path class="outline" fill="#A5ABB6" stroke="none" d="M 25 0.5 L 51.60096715027002 0.5 L 51.60096715027002 -0.5 L 25 -0.5 Z M 70.93690465027002 0.5 L 97.53787180054005 0.5 L 97.53787180054005 3.5 L 104.53787180054005 0 L 97.53787180054005 -3.5 L 97.53787180054005 -0.5 L 70.93690465027002 -0.5 Z"/><text text-anchor="middle" pointer-events="none" font-size="8px" fill="#000000" x="61.26893590027002" y="3" font-family="sans-serif">trek</text></g></g><g class="layer nodes"><g class="node" transform="translate(231.24590492099023,174.65775352473682)"><circle class="outline" cx="0" cy="0" r="25" fill="#F16667" stroke="#eb2728" stroke-width="2px"/><text text-anchor="middle" pointer-events="none" font-family="sans-serif" dy="1.5625" font-size="25" fill="#FFFFFF"/><text text-anchor="middle" pointer-events="none" y="5" font-size="10px" fill="#FFFFFF" font-family="sans-serif"> Darjeeling</text></g><g class="node" transform="translate(122.92643053246591,170.663118235641)"><circle class="outline" cx="0" cy="0" r="25" fill="#F16667" stroke="#eb2728" stroke-width="2px"/><text text-anchor="middle" pointer-events="none" font-family="sans-serif" dy="1.5625" font-size="25" fill="#FFFFFF"/><text text-anchor="middle" pointer-events="none" y="5" font-size="10px" fill="#FFFFFF" font-family="sans-serif"> Rimbik</text></g><g class="node" transform="translate(203.65930101947086,106.73342408161321)"><circle class="outline" cx="0" cy="0" r="25" fill="#D9C8AE" stroke="#c0a378" stroke-width="2px"/><text text-anchor="middle" pointer-events="none" font-family="sans-serif" dy="1.5625" font-size="25" fill="#604A0E"/><text text-anchor="middle" pointer-events="none" y="5" font-size="10px" fill="#604A0E" font-family="sans-serif"> BhikeBh…</text></g><g class="node" transform="translate(72.89536491091654,59.02587882473359)"><circle class="outline" cx="0" cy="0" r="25" fill="#8DCC93" stroke="#5db665" stroke-width="2px"/><text text-anchor="middle" pointer-events="none" font-family="sans-serif" dy="1.5625" font-size="25" fill="#604A0E"/><text text-anchor="middle" pointer-events="none" y="5" font-size="10px" fill="#604A0E" font-family="sans-serif"> Sandak…</text></g><g class="node" transform="translate(177.18115732576214,53.03452965617222)"><circle class="outline" cx="0" cy="0" r="25" fill="#D9C8AE" stroke="#c0a378" stroke-width="2px"/><text text-anchor="middle" pointer-events="none" font-family="sans-serif" dy="1.5625" font-size="25" fill="#604A0E"/><text text-anchor="middle" pointer-events="none" y="5" font-size="10px" fill="#604A0E" font-family="sans-serif"> Tumbling</text></g><g class="node" transform="translate(273.41262442999596,11.553718541776425)"><circle class="outline" cx="0" cy="0" r="25" fill="#D9C8AE" stroke="#c0a378" stroke-width="2px"/><text text-anchor="middle" pointer-events="none" font-family="sans-serif" dy="1.5625" font-size="25" fill="#604A0E"/><text text-anchor="middle" pointer-events="none" y="5" font-size="10px" fill="#604A0E" font-family="sans-serif"> Gairibus</text></g><g class="node" transform="translate(9.269677392590237,111.18693006679264)"><circle class="outline" cx="0" cy="0" r="25" fill="#D9C8AE" stroke="#c0a378" stroke-width="2px"/><text text-anchor="middle" pointer-events="none" font-family="sans-serif" dy="1.5625" font-size="25" fill="#604A0E"/><text text-anchor="middle" pointer-events="none" y="5" font-size="10px" fill="#604A0E" font-family="sans-serif"> Sirikhola</text></g><g class="node" transform="translate(-32.97137649749934,6.561731320267635)"><circle class="outline" cx="0" cy="0" r="25" fill="#D9C8AE" stroke="#c0a378" stroke-width="2px"/><text text-anchor="middle" pointer-events="none" font-family="sans-serif" dy="1.5625" font-size="25" fill="#604A0E"/><text text-anchor="middle" pointer-events="none" y="5" font-size="10px" fill="#604A0E" font-family="sans-serif"> Gurdum</text></g><g class="node" transform="translate(-102.88587744073811,93.71600413535464)"><circle class="outline" cx="0" cy="0" r="25" fill="#D9C8AE" stroke="#c0a378" stroke-width="2px"/><text text-anchor="middle" pointer-events="none" font-family="sans-serif" dy="1.5625" font-size="25" fill="#604A0E"/><text text-anchor="middle" pointer-events="none" y="5" font-size="10px" fill="#604A0E" font-family="sans-serif"> Rammam</text></g><g class="node" transform="translate(-22.006348879365007,167.7055226809023)"><circle class="outline" cx="0" cy="0" r="25" fill="#8DCC93" stroke="#5db665" stroke-width="2px"/><text text-anchor="middle" pointer-events="none" font-family="sans-serif" dy="1.5625" font-size="25" fill="#604A0E"/><text text-anchor="middle" pointer-events="none" y="5" font-size="10px" fill="#604A0E" font-family="sans-serif"> Sabargr…</text></g></g></svg>