<svg xmlns="http://www.w3.org/2000/svg" width="805.2601318359375" height="805.4468383789062" viewBox="-331.7117614746094 -282.42584228515625 805.2601318359375 805.4468383789062"><title>Neo4j Graph Visualization</title><desc>Created using Neo4j (http://www.neo4j.com/)</desc><g class="layer relationships"><g class="relationship" transform="translate(-56.40424649354544 337.04487471369544) rotate(291.2652002531245)"><path class="outline" fill="#A5ABB6" stroke="none" d="M 25 0.5 L 92.3676392917158 0.5 L 92.3676392917158 -0.5 L 25 -0.5 Z M 151.55513929171582 0.5 L 218.9227785834316 0.5 L 218.9227785834316 3.5 L 225.9227785834316 0 L 218.9227785834316 -3.5 L 218.9227785834316 -0.5 L 151.55513929171582 -0.5 Z"/><text text-anchor="middle" pointer-events="none" font-size="8px" fill="#000000" x="121.9613892917158" y="3" font-family="sans-serif">DESTINATION</text></g><g class="relationship" transform="translate(-56.40424649354544 337.04487471369544) rotate(522.8710008633255)"><path class="outline" fill="#A5ABB6" stroke="none" d="M 25 0.5 L 42.58160449616367 0.5 L 42.58160449616367 -0.5 L 25 -0.5 Z M 77.02691699616366 0.5 L 94.60852149232734 0.5 L 94.60852149232734 3.5 L 101.60852149232734 0 L 94.60852149232734 -3.5 L 94.60852149232734 -0.5 L 77.02691699616366 -0.5 Z"/><text text-anchor="middle" pointer-events="none" font-size="8px" fill="#000000" x="59.80426074616367" y="3" transform="rotate(180 59.80426074616367 0)" font-family="sans-serif">ORIGIN</text></g><g class="relationship" transform="translate(104.29153612202526 318.45113956431743) rotate(252.05955663737535)"><path class="outline" fill="#A5ABB6" stroke="none" d="M 25 0.5 L 92.39973671803494 0.5 L 92.39973671803494 -0.5 L 25 -0.5 Z M 126.84504921803494 0.5 L 194.2447859360699 0.5 L 194.2447859360699 3.5 L 201.2447859360699 0 L 194.2447859360699 -3.5 L 194.2447859360699 -0.5 L 126.84504921803494 -0.5 Z"/><text text-anchor="middle" pointer-events="none" font-size="8px" fill="#000000" x="109.62239296803494" y="3" transform="rotate(180 109.62239296803494 0)" font-family="sans-serif">ORIGIN</text></g><g class="relationship" transform="translate(104.29153612202526 318.45113956431743) rotate(432.0212417122738)"><path class="outline" fill="#A5ABB6" stroke="none" d="M 25 0.5 L 59.19766367472424 0.5 L 59.19766367472424 -0.5 L 25 -0.5 Z M 118.38516367472424 0.5 L 152.58282734944848 0.5 L 152.58282734944848 3.5 L 159.58282734944848 0 L 152.58282734944848 -3.5 L 152.58282734944848 -0.5 L 118.38516367472424 -0.5 Z"/><text text-anchor="middle" pointer-events="none" font-size="8px" fill="#000000" x="88.79141367472424" y="3" font-family="sans-serif">DESTINATION</text></g><g class="relationship" transform="translate(237.07254091059616 220.48384629485858) rotate(210.08064314080673)"><path class="outline" fill="#A5ABB6" stroke="none" d="M 25 0.5 L 83.89799930329136 0.5 L 83.89799930329136 -0.5 L 25 -0.5 Z M 143.08549930329136 0.5 L 201.9834986065827 0.5 L 201.9834986065827 3.5 L 208.9834986065827 0 L 201.9834986065827 -3.5 L 201.9834986065827 -0.5 L 143.08549930329136 -0.5 Z"/><text text-anchor="middle" pointer-events="none" font-size="8px" fill="#000000" x="113.49174930329136" y="3" transform="rotate(180 113.49174930329136 0)" font-family="sans-serif">DESTINATION</text></g><g class="relationship" transform="translate(237.07254091059616 220.48384629485858) rotate(355.78290131196707)"><path class="outline" fill="#A5ABB6" stroke="none" d="M 25 0.5 L 62.7301248407103 0.5 L 62.7301248407103 -0.5 L 25 -0.5 Z M 97.1754373407103 0.5 L 134.9055621814206 0.5 L 134.9055621814206 3.5 L 141.9055621814206 0 L 134.9055621814206 -3.5 L 134.9055621814206 -0.5 L 97.1754373407103 -0.5 Z"/><text text-anchor="middle" pointer-events="none" font-size="8px" fill="#000000" x="79.9527810907103" y="3" font-family="sans-serif">ORIGIN</text></g><g class="relationship" transform="translate(173.46025574600904 137.02021299263023) rotate(193.68564812377508)"><path class="outline" fill="#A5ABB6" stroke="none" d="M 25 0.5 L 50.735403108680615 0.5 L 50.735403108680615 -0.5 L 25 -0.5 Z M 85.18071560868061 0.5 L 110.91611871736123 0.5 L 110.91611871736123 3.5 L 117.91611871736123 0 L 110.91611871736123 -3.5 L 110.91611871736123 -0.5 L 85.18071560868061 -0.5 Z"/><text text-anchor="middle" pointer-events="none" font-size="8px" fill="#000000" x="67.95805935868061" y="3" transform="rotate(180 67.95805935868061 0)" font-family="sans-serif">ORIGIN</text></g><g class="relationship" transform="translate(173.46025574600904 137.02021299263023) rotate(188.57006410000878)"><path class="outline" fill="#A5ABB6" stroke="none" d="M 25 0.5 L 25.81160596952588 0.5 L 25.81160596952588 -0.5 L 25 -0.5 Z M 50.92488721952588 0.5 L 51.73649318905176 0.5 L 51.73649318905176 3.5 L 58.73649318905176 0 L 51.73649318905176 -3.5 L 51.73649318905176 -0.5 L 50.92488721952588 -0.5 Z"/><text text-anchor="middle" pointer-events="none" font-size="8px" fill="#000000" x="38.36824659452588" y="3" transform="rotate(180 38.36824659452588 0)" font-family="sans-serif">DE…</text></g><g class="relationship" transform="translate(176.04337745429166 282.308516176164) rotate(231.7008323836679)"><path class="outline" fill="#A5ABB6" stroke="none" d="M 25 0.5 L 81.01484347408373 0.5 L 81.01484347408373 -0.5 L 25 -0.5 Z M 140.20234347408373 0.5 L 196.21718694816747 0.5 L 196.21718694816747 3.5 L 203.21718694816747 0 L 196.21718694816747 -3.5 L 196.21718694816747 -0.5 L 140.20234347408373 -0.5 Z"/><text text-anchor="middle" pointer-events="none" font-size="8px" fill="#000000" x="110.60859347408373" y="3" transform="rotate(180 110.60859347408373 0)" font-family="sans-serif">DESTINATION</text></g><g class="relationship" transform="translate(176.04337745429166 282.308516176164) rotate(405.37044375689504)"><path class="outline" fill="#A5ABB6" stroke="none" d="M 25 0.5 L 73.54107880679939 0.5 L 73.54107880679939 -0.5 L 25 -0.5 Z M 107.98639130679939 0.5 L 156.52747011359878 0.5 L 156.52747011359878 3.5 L 163.52747011359878 0 L 156.52747011359878 -3.5 L 156.52747011359878 -0.5 L 107.98639130679939 -0.5 Z"/><text text-anchor="middle" pointer-events="none" font-size="8px" fill="#000000" x="90.76373505679939" y="3" font-family="sans-serif">ORIGIN</text></g><g class="relationship" transform="translate(-84.51180398550251 237.1152492041718) rotate(311.65361220222337)"><path class="outline" fill="#A5ABB6" stroke="none" d="M 25 0.5 L 56.51575977191874 0.5 L 56.51575977191874 -0.5 L 25 -0.5 Z M 115.70325977191874 0.5 L 147.21901954383748 0.5 L 147.21901954383748 3.5 L 154.21901954383748 0 L 147.21901954383748 -3.5 L 147.21901954383748 -0.5 L 115.70325977191874 -0.5 Z"/><text text-anchor="middle" pointer-events="none" font-size="8px" fill="#000000" x="86.10950977191874" y="3" font-family="sans-serif">DESTINATION</text></g><g class="relationship" transform="translate(-84.51180398550251 237.1152492041718) rotate(484.09454824542973)"><path class="outline" fill="#A5ABB6" stroke="none" d="M 25 0.5 L 62.12761124843857 0.5 L 62.12761124843857 -0.5 L 25 -0.5 Z M 96.57292374843857 0.5 L 133.70053499687714 0.5 L 133.70053499687714 3.5 L 140.70053499687714 0 L 133.70053499687714 -3.5 L 133.70053499687714 -0.5 L 96.57292374843857 -0.5 Z"/><text text-anchor="middle" pointer-events="none" font-size="8px" fill="#000000" x="79.35026749843857" y="3" transform="rotate(180 79.35026749843857 0)" font-family="sans-serif">ORIGIN</text></g><g class="relationship" transform="translate(84.95600535470422 -80.56920977181268) rotate(465.32284554145167)"><path class="outline" fill="#A5ABB6" stroke="none" d="M 25 0.5 L 74.55227245958261 0.5 L 74.55227245958261 -0.5 L 25 -0.5 Z M 108.99758495958261 0.5 L 158.54985741916522 0.5 L 158.54985741916522 3.5 L 165.54985741916522 0 L 158.54985741916522 -3.5 L 158.54985741916522 -0.5 L 108.99758495958261 -0.5 Z"/><text text-anchor="middle" pointer-events="none" font-size="8px" fill="#000000" x="91.77492870958261" y="3" transform="rotate(180 91.77492870958261 0)" font-family="sans-serif">ORIGIN</text></g><g class="relationship" transform="translate(84.95600535470422 -80.56920977181268) rotate(287.45619832178846)"><path class="outline" fill="#A5ABB6" stroke="none" d="M 25 0.5 L 57.50703471768844 0.5 L 57.50703471768844 -0.5 L 25 -0.5 Z M 116.69453471768844 0.5 L 149.20156943537688 0.5 L 149.20156943537688 3.5 L 156.20156943537688 0 L 149.20156943537688 -3.5 L 149.20156943537688 -0.5 L 116.69453471768844 -0.5 Z"/><text text-anchor="middle" pointer-events="none" font-size="8px" fill="#000000" x="87.10078471768844" y="3" font-family="sans-serif">DESTINATION</text></g><g class="relationship" transform="translate(182.5751657141808 77.744468385307) rotate(530.2364405108115)"><path class="outline" fill="#A5ABB6" stroke="none" d="M 25 0.5 L 54.35142699756277 0.5 L 54.35142699756277 -0.5 L 25 -0.5 Z M 88.79673949756277 0.5 L 118.14816649512554 0.5 L 118.14816649512554 3.5 L 125.14816649512554 0 L 118.14816649512554 -3.5 L 118.14816649512554 -0.5 L 88.79673949756277 -0.5 Z"/><text text-anchor="middle" pointer-events="none" font-size="8px" fill="#000000" x="71.57408324756277" y="3" transform="rotate(180 71.57408324756277 0)" font-family="sans-serif">ORIGIN</text></g><g class="relationship" transform="translate(182.5751657141808 77.744468385307) rotate(513.017977553035)"><path class="outline" fill="#A5ABB6" stroke="none" d="M 25 0.5 L 26.40390102158377 0.5 L 26.40390102158377 -0.5 L 25 -0.5 Z M 69.73983852158378 0.5 L 71.14373954316754 0.5 L 71.14373954316754 3.5 L 78.14373954316754 0 L 71.14373954316754 -3.5 L 71.14373954316754 -0.5 L 69.73983852158378 -0.5 Z"/><text text-anchor="middle" pointer-events="none" font-size="8px" fill="#000000" x="48.07186977158377" y="3" transform="rotate(180 48.07186977158377 0)" font-family="sans-serif">DESTIN…</text></g><g class="relationship" transform="translate(-48.518099265185384 133.81041710217562) rotate(339.78709306128576)"><path class="outline" fill="#A5ABB6" stroke="none" d="M 25 0.5 L 26.676024768459918 0.5 L 26.676024768459918 -0.5 L 25 -0.5 Z M 54.89868101845992 0.5 L 56.574705786919836 0.5 L 56.574705786919836 3.5 L 63.574705786919836 0 L 56.574705786919836 -3.5 L 56.574705786919836 -0.5 L 54.89868101845992 -0.5 Z"/><text text-anchor="middle" pointer-events="none" font-size="8px" fill="#000000" x="40.78735289345992" y="3" font-family="sans-serif">ORI…</text></g><g class="relationship" transform="translate(-48.518099265185384 133.81041710217562) rotate(356.1900018159131)"><path class="outline" fill="#A5ABB6" stroke="none" d="M 25 0.5 L 36.64880488068188 0.5 L 36.64880488068188 -0.5 L 25 -0.5 Z M 95.83630488068188 0.5 L 107.48510976136376 0.5 L 107.48510976136376 3.5 L 114.48510976136376 0 L 107.48510976136376 -3.5 L 107.48510976136376 -0.5 L 95.83630488068188 -0.5 Z"/><text text-anchor="middle" pointer-events="none" font-size="8px" fill="#000000" x="66.24255488068188" y="3" font-family="sans-serif">DESTINATION</text></g><g class="relationship" transform="translate(-142.12785808044399 253.48809825283487) rotate(319.62399860115687)"><path class="outline" fill="#A5ABB6" stroke="none" d="M 25 0.5 L 95.27062152362076 0.5 L 95.27062152362076 -0.5 L 25 -0.5 Z M 129.71593402362078 0.5 L 199.98655554724152 0.5 L 199.98655554724152 3.5 L 206.98655554724152 0 L 199.98655554724152 -3.5 L 199.98655554724152 -0.5 L 129.71593402362078 -0.5 Z"/><text text-anchor="middle" pointer-events="none" font-size="8px" fill="#000000" x="112.49327777362076" y="3" font-family="sans-serif">ORIGIN</text></g><g class="relationship" transform="translate(-142.12785808044399 253.48809825283487) rotate(466.2699536269088)"><path class="outline" fill="#A5ABB6" stroke="none" d="M 25 0.5 L 29.850015342038326 0.5 L 29.850015342038326 -0.5 L 25 -0.5 Z M 89.03751534203832 0.5 L 93.88753068407665 0.5 L 93.88753068407665 3.5 L 100.88753068407665 0 L 93.88753068407665 -3.5 L 93.88753068407665 -0.5 L 89.03751534203832 -0.5 Z"/><text text-anchor="middle" pointer-events="none" font-size="8px" fill="#000000" x="59.443765342038326" y="3" transform="rotate(180 59.443765342038326 0)" font-family="sans-serif">DESTINATION</text></g><g class="relationship" transform="translate(229.82610822902527 157.416888348896) rotate(195.51890543021796)"><path class="outline" fill="#A5ABB6" stroke="none" d="M 25 0.5 L 68.21180334862709 0.5 L 68.21180334862709 -0.5 L 25 -0.5 Z M 127.39930334862709 0.5 L 170.61110669725417 0.5 L 170.61110669725417 3.5 L 177.61110669725417 0 L 170.61110669725417 -3.5 L 170.61110669725417 -0.5 L 127.39930334862709 -0.5 Z"/><text text-anchor="middle" pointer-events="none" font-size="8px" fill="#000000" x="97.80555334862709" y="3" transform="rotate(180 97.80555334862709 0)" font-family="sans-serif">DESTINATION</text></g><g class="relationship" transform="translate(229.82610822902527 157.416888348896) rotate(376.2999858433108)"><path class="outline" fill="#A5ABB6" stroke="none" d="M 25 0.5 L 69.76449761160706 0.5 L 69.76449761160706 -0.5 L 25 -0.5 Z M 104.20981011160706 0.5 L 148.9743077232141 0.5 L 148.9743077232141 3.5 L 155.9743077232141 0 L 148.9743077232141 -3.5 L 148.9743077232141 -0.5 L 104.20981011160706 -0.5 Z"/><text text-anchor="middle" pointer-events="none" font-size="8px" fill="#000000" x="86.98715386160706" y="3" font-family="sans-serif">ORIGIN</text></g><g class="relationship" transform="translate(-185.10439593003076 211.95809241946748) rotate(333.6653140159548)"><path class="outline" fill="#A5ABB6" stroke="none" d="M 25 0.5 L 101.85139321932901 0.5 L 101.85139321932901 -0.5 L 25 -0.5 Z M 136.296705719329 0.5 L 213.14809893865802 0.5 L 213.14809893865802 3.5 L 220.14809893865802 0 L 213.14809893865802 -3.5 L 213.14809893865802 -0.5 L 136.296705719329 -0.5 Z"/><text text-anchor="middle" pointer-events="none" font-size="8px" fill="#000000" x="119.07404946932901" y="3" font-family="sans-serif">ORIGIN</text></g><g class="relationship" transform="translate(-185.10439593003076 211.95809241946748) rotate(447.28239392886763)"><path class="outline" fill="#A5ABB6" stroke="none" d="M 25 0.5 L 48.185678676710026 0.5 L 48.185678676710026 -0.5 L 25 -0.5 Z M 107.37317867671003 0.5 L 130.55885735342005 0.5 L 130.55885735342005 3.5 L 137.55885735342005 0 L 130.55885735342005 -3.5 L 130.55885735342005 -0.5 L 107.37317867671003 -0.5 Z"/><text text-anchor="middle" pointer-events="none" font-size="8px" fill="#000000" x="77.77942867671003" y="3" font-family="sans-serif">DESTINATION</text></g><g class="relationship" transform="translate(257.0649625764139 39.85424278721319) rotate(524.1041807789659)"><path class="outline" fill="#A5ABB6" stroke="none" d="M 25 0.5 L 82.560316637953 0.5 L 82.560316637953 -0.5 L 25 -0.5 Z M 141.747816637953 0.5 L 199.308133275906 0.5 L 199.308133275906 3.5 L 206.308133275906 0 L 199.308133275906 -3.5 L 199.308133275906 -0.5 L 141.747816637953 -0.5 Z"/><text text-anchor="middle" pointer-events="none" font-size="8px" fill="#000000" x="112.154066637953" y="3" transform="rotate(180 112.154066637953 0)" font-family="sans-serif">DESTINATION</text></g><g class="relationship" transform="translate(257.0649625764139 39.85424278721319) rotate(345.760207935517)"><path class="outline" fill="#A5ABB6" stroke="none" d="M 25 0.5 L 75.99055891680565 0.5 L 75.99055891680565 -0.5 L 25 -0.5 Z M 110.43587141680565 0.5 L 161.4264303336113 0.5 L 161.4264303336113 3.5 L 168.4264303336113 0 L 161.4264303336113 -3.5 L 161.4264303336113 -0.5 L 110.43587141680565 -0.5 Z"/><text text-anchor="middle" pointer-events="none" font-size="8px" fill="#000000" x="93.21321516680565" y="3" font-family="sans-serif">ORIGIN</text></g><g class="relationship" transform="translate(233.22142228762277 -17.74486759738338) rotate(508.66016468757016)"><path class="outline" fill="#A5ABB6" stroke="none" d="M 25 0.5 L 95.55194219642748 0.5 L 95.55194219642748 -0.5 L 25 -0.5 Z M 129.9972546964275 0.5 L 200.54919689285495 0.5 L 200.54919689285495 3.5 L 207.54919689285495 0 L 200.54919689285495 -3.5 L 200.54919689285495 -0.5 L 129.9972546964275 -0.5 Z"/><text text-anchor="middle" pointer-events="none" font-size="8px" fill="#000000" x="112.77459844642748" y="3" transform="rotate(180 112.77459844642748 0)" font-family="sans-serif">ORIGIN</text></g><g class="relationship" transform="translate(233.22142228762277 -17.74486759738338) rotate(310.65690536923427)"><path class="outline" fill="#A5ABB6" stroke="none" d="M 25 0.5 L 50.48790463345671 0.5 L 50.48790463345671 -0.5 L 25 -0.5 Z M 109.67540463345671 0.5 L 135.16330926691342 0.5 L 135.16330926691342 3.5 L 142.16330926691342 0 L 135.16330926691342 -3.5 L 135.16330926691342 -0.5 L 109.67540463345671 -0.5 Z"/><text text-anchor="middle" pointer-events="none" font-size="8px" fill="#000000" x="80.08165463345671" y="3" font-family="sans-serif">DESTINATION</text></g><g class="relationship" transform="translate(283.7628619698125 182.91019905081126) rotate(197.738755327342)"><path class="outline" fill="#A5ABB6" stroke="none" d="M 25 0.5 L 97.70557878705773 0.5 L 97.70557878705773 -0.5 L 25 -0.5 Z M 156.89307878705773 0.5 L 229.59865757411546 0.5 L 229.59865757411546 3.5 L 236.59865757411546 0 L 229.59865757411546 -3.5 L 229.59865757411546 -0.5 L 156.89307878705773 -0.5 Z"/><text text-anchor="middle" pointer-events="none" font-size="8px" fill="#000000" x="127.29932878705773" y="3" transform="rotate(180 127.29932878705773 0)" font-family="sans-serif">DESTINATION</text></g><g class="relationship" transform="translate(283.7628619698125 182.91019905081126) rotate(371.92840259236095)"><path class="outline" fill="#A5ABB6" stroke="none" d="M 25 0.5 L 40.480606019638344 0.5 L 40.480606019638344 -0.5 L 25 -0.5 Z M 74.92591851963834 0.5 L 90.40652453927669 0.5 L 90.40652453927669 3.5 L 97.40652453927669 0 L 90.40652453927669 -3.5 L 90.40652453927669 -0.5 L 74.92591851963834 -0.5 Z"/><text text-anchor="middle" pointer-events="none" font-size="8px" fill="#000000" x="57.703262269638344" y="3" font-family="sans-serif">ORIGIN</text></g><g class="relationship" transform="translate(-73.96779018506594 -93.2407772483457) rotate(421.0721679544863)"><path class="outline" fill="#A5ABB6" stroke="none" d="M 25 0.5 L 79.13266951223373 0.5 L 79.13266951223373 -0.5 L 25 -0.5 Z M 138.32016951223375 0.5 L 192.45283902446747 0.5 L 192.45283902446747 3.5 L 199.45283902446747 0 L 192.45283902446747 -3.5 L 192.45283902446747 -0.5 L 138.32016951223375 -0.5 Z"/><text text-anchor="middle" pointer-events="none" font-size="8px" fill="#000000" x="108.72641951223373" y="3" font-family="sans-serif">DESTINATION</text></g><g class="relationship" transform="translate(-73.96779018506594 -93.2407772483457) rotate(265.1768525028337)"><path class="outline" fill="#A5ABB6" stroke="none" d="M 25 0.5 L 59.14573684563926 0.5 L 59.14573684563926 -0.5 L 25 -0.5 Z M 93.59104934563926 0.5 L 127.73678619127853 0.5 L 127.73678619127853 3.5 L 134.73678619127853 0 L 127.73678619127853 -3.5 L 127.73678619127853 -0.5 L 93.59104934563926 -0.5 Z"/><text text-anchor="middle" pointer-events="none" font-size="8px" fill="#000000" x="76.36839309563926" y="3" transform="rotate(180 76.36839309563926 0)" font-family="sans-serif">ORIGIN</text></g><g class="relationship" transform="translate(-96.177731519768 -37.54978851654779) rotate(407.10432551448974)"><path class="outline" fill="#A5ABB6" stroke="none" d="M 25 0.5 L 75.34470094558706 0.5 L 75.34470094558706 -0.5 L 25 -0.5 Z M 109.79001344558706 0.5 L 160.13471439117413 0.5 L 160.13471439117413 3.5 L 167.13471439117413 0 L 160.13471439117413 -3.5 L 160.13471439117413 -0.5 L 109.79001344558706 -0.5 Z"/><text text-anchor="middle" pointer-events="none" font-size="8px" fill="#000000" x="92.56735719558706" y="3" font-family="sans-serif">ORIGIN</text></g><g class="relationship" transform="translate(-96.177731519768 -37.54978851654779) rotate(227.34852873311524)"><path class="outline" fill="#A5ABB6" stroke="none" d="M 25 0.5 L 60.59492794189737 0.5 L 60.59492794189737 -0.5 L 25 -0.5 Z M 119.78242794189737 0.5 L 155.37735588379473 0.5 L 155.37735588379473 3.5 L 162.37735588379473 0 L 155.37735588379473 -3.5 L 155.37735588379473 -0.5 L 119.78242794189737 -0.5 Z"/><text text-anchor="middle" pointer-events="none" font-size="8px" fill="#000000" x="90.18867794189737" y="3" transform="rotate(180 90.18867794189737 0)" font-family="sans-serif">DESTINATION</text></g><g class="relationship" transform="translate(1.0432750832433748 320.8508910123836) rotate(278.76539806428315)"><path class="outline" fill="#A5ABB6" stroke="none" d="M 25 0.5 L 89.3852819561656 0.5 L 89.3852819561656 -0.5 L 25 -0.5 Z M 123.8305944561656 0.5 L 188.2158764123312 0.5 L 188.2158764123312 3.5 L 195.2158764123312 0 L 188.2158764123312 -3.5 L 188.2158764123312 -0.5 L 123.8305944561656 -0.5 Z"/><text text-anchor="middle" pointer-events="none" font-size="8px" fill="#000000" x="106.6079382061656" y="3" font-family="sans-serif">ORIGIN</text></g><g class="relationship" transform="translate(1.0432750832433748 320.8508910123836) rotate(523.3151393997884)"><path class="outline" fill="#A5ABB6" stroke="none" d="M 25 0.5 L 60.0477595354849 0.5 L 60.0477595354849 -0.5 L 25 -0.5 Z M 119.2352595354849 0.5 L 154.2830190709698 0.5 L 154.2830190709698 3.5 L 161.2830190709698 0 L 154.2830190709698 -3.5 L 154.2830190709698 -0.5 L 119.2352595354849 -0.5 Z"/><text text-anchor="middle" pointer-events="none" font-size="8px" fill="#000000" x="89.6415095354849" y="3" transform="rotate(180 89.6415095354849 0)" font-family="sans-serif">DESTINATION</text></g><g class="relationship" transform="translate(-41.65934423502655 278.9142751207413) rotate(293.4619799429033)"><path class="outline" fill="#A5ABB6" stroke="none" d="M 25 0.5 L 62.67785249652427 0.5 L 62.67785249652427 -0.5 L 25 -0.5 Z M 121.86535249652427 0.5 L 159.54320499304853 0.5 L 159.54320499304853 3.5 L 166.54320499304853 0 L 159.54320499304853 -3.5 L 159.54320499304853 -0.5 L 121.86535249652427 -0.5 Z"/><text text-anchor="middle" pointer-events="none" font-size="8px" fill="#000000" x="92.27160249652427" y="3" font-family="sans-serif">DESTINATION</text></g><g class="relationship" transform="translate(-41.65934423502655 278.9142751207413) rotate(504.8938181654774)"><path class="outline" fill="#A5ABB6" stroke="none" d="M 25 0.5 L 62.23763602617939 0.5 L 62.23763602617939 -0.5 L 25 -0.5 Z M 96.68294852617939 0.5 L 133.92058455235878 0.5 L 133.92058455235878 3.5 L 140.92058455235878 0 L 133.92058455235878 -3.5 L 133.92058455235878 -0.5 L 96.68294852617939 -0.5 Z"/><text text-anchor="middle" pointer-events="none" font-size="8px" fill="#000000" x="79.46029227617939" y="3" transform="rotate(180 79.46029227617939 0)" font-family="sans-serif">ORIGIN</text></g><g class="relationship" transform="translate(276.06228987329666 119.40575509356076) rotate(183.83802408069545)"><path class="outline" fill="#A5ABB6" stroke="none" d="M 25 0.5 L 87.90789329676765 0.5 L 87.90789329676765 -0.5 L 25 -0.5 Z M 147.09539329676767 0.5 L 210.0032865935353 0.5 L 210.0032865935353 3.5 L 217.0032865935353 0 L 210.0032865935353 -3.5 L 210.0032865935353 -0.5 L 147.09539329676767 -0.5 Z"/><text text-anchor="middle" pointer-events="none" font-size="8px" fill="#000000" x="117.50164329676765" y="3" transform="rotate(180 117.50164329676765 0)" font-family="sans-serif">DESTINATION</text></g><g class="relationship" transform="translate(276.06228987329666 119.40575509356076) rotate(394.8650580824876)"><path class="outline" fill="#A5ABB6" stroke="none" d="M 25 0.5 L 56.951827968948905 0.5 L 56.951827968948905 -0.5 L 25 -0.5 Z M 91.3971404689489 0.5 L 123.34896843789781 0.5 L 123.34896843789781 3.5 L 130.3489684378978 0 L 123.34896843789781 -3.5 L 123.34896843789781 -0.5 L 91.3971404689489 -0.5 Z"/><text text-anchor="middle" pointer-events="none" font-size="8px" fill="#000000" x="74.1744842189489" y="3" font-family="sans-serif">ORIGIN</text></g><g class="relationship" transform="translate(51.42199354252169 236.3166134411745) rotate(262.79805646786235)"><path class="outline" fill="#A5ABB6" stroke="none" d="M 25 0.5 L 33.99031704290323 0.5 L 33.99031704290323 -0.5 L 25 -0.5 Z M 93.17781704290323 0.5 L 102.16813408580646 0.5 L 102.16813408580646 3.5 L 109.16813408580646 0 L 102.16813408580646 -3.5 L 102.16813408580646 -0.5 L 93.17781704290323 -0.5 Z"/><text text-anchor="middle" pointer-events="none" font-size="8px" fill="#000000" x="63.58406704290323" y="3" transform="rotate(180 63.58406704290323 0)" font-family="sans-serif">DESTINATION</text></g><g class="relationship" transform="translate(51.42199354252169 236.3166134411745) rotate(289.3428155968036)"><path class="outline" fill="#A5ABB6" stroke="none" d="M 25 0.5 L 38.508050416825206 0.5 L 38.508050416825206 -0.5 L 25 -0.5 Z M 72.9533629168252 0.5 L 86.46141333365041 0.5 L 86.46141333365041 3.5 L 93.46141333365041 0 L 86.46141333365041 -3.5 L 86.46141333365041 -0.5 L 72.9533629168252 -0.5 Z"/><text text-anchor="middle" pointer-events="none" font-size="8px" fill="#000000" x="55.730706666825206" y="3" font-family="sans-serif">ORIGIN</text></g><g class="relationship" transform="translate(-175.89354350947912 98.224751078858) rotate(361.35589191227695)"><path class="outline" fill="#A5ABB6" stroke="none" d="M 25 0.5 L 84.55446898318453 0.5 L 84.55446898318453 -0.5 L 25 -0.5 Z M 118.99978148318453 0.5 L 178.55425046636907 0.5 L 178.55425046636907 3.5 L 185.55425046636907 0 L 178.55425046636907 -3.5 L 178.55425046636907 -0.5 L 118.99978148318453 -0.5 Z"/><text text-anchor="middle" pointer-events="none" font-size="8px" fill="#000000" x="101.77712523318453" y="3" font-family="sans-serif">ORIGIN</text></g><g class="relationship" transform="translate(-175.89354350947912 98.224751078858) rotate(215.53613978376546)"><path class="outline" fill="#A5ABB6" stroke="none" d="M 25 0.5 L 44.82844605851028 0.5 L 44.82844605851028 -0.5 L 25 -0.5 Z M 104.01594605851028 0.5 L 123.84439211702056 0.5 L 123.84439211702056 3.5 L 130.84439211702056 0 L 123.84439211702056 -3.5 L 123.84439211702056 -0.5 L 104.01594605851028 -0.5 Z"/><text text-anchor="middle" pointer-events="none" font-size="8px" fill="#000000" x="74.42219605851028" y="3" transform="rotate(180 74.42219605851028 0)" font-family="sans-serif">DESTINATION</text></g><g class="relationship" transform="translate(99.26851169150117 -138.6032391517777) rotate(464.9721189970542)"><path class="outline" fill="#A5ABB6" stroke="none" d="M 25 0.5 L 104.43123329232336 0.5 L 104.43123329232336 -0.5 L 25 -0.5 Z M 138.87654579232336 0.5 L 218.3077790846467 0.5 L 218.3077790846467 3.5 L 225.3077790846467 0 L 218.3077790846467 -3.5 L 218.3077790846467 -0.5 L 138.87654579232336 -0.5 Z"/><text text-anchor="middle" pointer-events="none" font-size="8px" fill="#000000" x="121.65388954232336" y="3" transform="rotate(180 121.65388954232336 0)" font-family="sans-serif">ORIGIN</text></g><g class="relationship" transform="translate(99.26851169150117 -138.6032391517777) rotate(289.22592852898936)"><path class="outline" fill="#A5ABB6" stroke="none" d="M 25 0.5 L 27.708646703680238 0.5 L 27.708646703680238 -0.5 L 25 -0.5 Z M 86.89614670368024 0.5 L 89.60479340736048 0.5 L 89.60479340736048 3.5 L 96.60479340736048 0 L 89.60479340736048 -3.5 L 89.60479340736048 -0.5 L 86.89614670368024 -0.5 Z"/><text text-anchor="middle" pointer-events="none" font-size="8px" fill="#000000" x="57.30239670368024" y="3" font-family="sans-serif">DESTINATION</text></g><g class="relationship" transform="translate(-99.26484333857732 295.1171678496202) rotate(304.8976326434156)"><path class="outline" fill="#A5ABB6" stroke="none" d="M 25 0.5 L 96.27069373708865 0.5 L 96.27069373708865 -0.5 L 25 -0.5 Z M 130.71600623708866 0.5 L 201.9866999741773 0.5 L 201.9866999741773 3.5 L 208.9866999741773 0 L 201.9866999741773 -3.5 L 201.9866999741773 -0.5 L 130.71600623708866 -0.5 Z"/><text text-anchor="middle" pointer-events="none" font-size="8px" fill="#000000" x="113.49334998708865" y="3" font-family="sans-serif">ORIGIN</text></g><g class="relationship" transform="translate(-99.26484333857732 295.1171678496202) rotate(494.6049689767559)"><path class="outline" fill="#A5ABB6" stroke="none" d="M 25 0.5 L 25.650189252658436 0.5 L 25.650189252658436 -0.5 L 25 -0.5 Z M 78.61503300265844 0.5 L 79.26522225531687 0.5 L 79.26522225531687 3.5 L 86.26522225531687 0 L 79.26522225531687 -3.5 L 79.26522225531687 -0.5 L 78.61503300265844 -0.5 Z"/><text text-anchor="middle" pointer-events="none" font-size="8px" fill="#000000" x="52.132611127658436" y="3" transform="rotate(180 52.132611127658436 0)" font-family="sans-serif">DESTINAT…</text></g><g class="relationship" transform="translate(92.7678749667222 7.14461491682452) rotate(481.19505590582645)"><path class="outline" fill="#A5ABB6" stroke="none" d="M 25 0.5 L 25.056229402295806 0.5 L 25.056229402295806 -0.5 L 25 -0.5 Z M 80.2437294022958 0.5 L 80.29995880459161 0.5 L 80.29995880459161 3.5 L 87.29995880459161 0 L 80.29995880459161 -3.5 L 80.29995880459161 -0.5 L 80.2437294022958 -0.5 Z"/><text text-anchor="middle" pointer-events="none" font-size="8px" fill="#000000" x="52.649979402295806" y="3" transform="rotate(180 52.649979402295806 0)" font-family="sans-serif">DESTINATI…</text></g><g class="relationship" transform="translate(92.7678749667222 7.14461491682452) rotate(451.02925664840075)"><path class="outline" fill="#A5ABB6" stroke="none" d="M 25 0.5 L 37.98546274064849 0.5 L 37.98546274064849 -0.5 L 25 -0.5 Z M 72.43077524064849 0.5 L 85.41623798129697 0.5 L 85.41623798129697 3.5 L 92.41623798129697 0 L 85.41623798129697 -3.5 L 85.41623798129697 -0.5 L 72.43077524064849 -0.5 Z"/><text text-anchor="middle" pointer-events="none" font-size="8px" fill="#000000" x="55.20811899064849" y="3" transform="rotate(180 55.20811899064849 0)" font-family="sans-serif">ORIGIN</text></g><g class="relationship" transform="translate(32.974616418517996 2.611352769069875) rotate(449.07332093479096)"><path class="outline" fill="#A5ABB6" stroke="none" d="M 25 0.5 L 25.136436995217792 0.5 L 25.136436995217792 -0.5 L 25 -0.5 Z M 68.47237449521779 0.5 L 68.60881149043558 0.5 L 68.60881149043558 3.5 L 75.60881149043558 0 L 68.60881149043558 -3.5 L 68.60881149043558 -0.5 L 68.47237449521779 -0.5 Z"/><text text-anchor="middle" pointer-events="none" font-size="8px" fill="#000000" x="46.80440574521779" y="3" font-family="sans-serif">DESTIN…</text></g><g class="relationship" transform="translate(32.974616418517996 2.611352769069875) rotate(424.6816409121285)"><path class="outline" fill="#A5ABB6" stroke="none" d="M 25 0.5 L 46.72087127918411 0.5 L 46.72087127918411 -0.5 L 25 -0.5 Z M 81.16618377918411 0.5 L 102.88705505836822 0.5 L 102.88705505836822 3.5 L 109.88705505836822 0 L 102.88705505836822 -3.5 L 102.88705505836822 -0.5 L 81.16618377918411 -0.5 Z"/><text text-anchor="middle" pointer-events="none" font-size="8px" fill="#000000" x="63.94352752918411" y="3" font-family="sans-serif">ORIGIN</text></g><g class="relationship" transform="translate(-133.70335697768684 55.621045237833485) rotate(375.78752245056927)"><path class="outline" fill="#A5ABB6" stroke="none" d="M 25 0.5 L 54.35771284380287 0.5 L 54.35771284380287 -0.5 L 25 -0.5 Z M 113.54521284380287 0.5 L 142.90292568760574 0.5 L 142.90292568760574 3.5 L 149.90292568760574 0 L 142.90292568760574 -3.5 L 142.90292568760574 -0.5 L 113.54521284380287 -0.5 Z"/><text text-anchor="middle" pointer-events="none" font-size="8px" fill="#000000" x="83.95146284380287" y="3" font-family="sans-serif">DESTINATION</text></g><g class="relationship" transform="translate(-133.70335697768684 55.621045237833485) rotate(195.84739761547928)"><path class="outline" fill="#A5ABB6" stroke="none" d="M 25 0.5 L 67.12024787649727 0.5 L 67.12024787649727 -0.5 L 25 -0.5 Z M 101.56556037649727 0.5 L 143.68580825299455 0.5 L 143.68580825299455 3.5 L 150.68580825299455 0 L 143.68580825299455 -3.5 L 143.68580825299455 -0.5 L 101.56556037649727 -0.5 Z"/><text text-anchor="middle" pointer-events="none" font-size="8px" fill="#000000" x="84.34290412649727" y="3" transform="rotate(180 84.34290412649727 0)" font-family="sans-serif">ORIGIN</text></g><g class="relationship" transform="translate(-26.131160423620656 38.48076513004711) rotate(406.82309226322155)"><path class="outline" fill="#A5ABB6" stroke="none" d="M 25 0.5 L 26.76764463059731 0.5 L 26.76764463059731 -0.5 L 25 -0.5 Z M 54.99030088059731 0.5 L 56.75794551119462 0.5 L 56.75794551119462 3.5 L 63.75794551119462 0 L 56.75794551119462 -3.5 L 56.75794551119462 -0.5 L 54.99030088059731 -0.5 Z"/><text text-anchor="middle" pointer-events="none" font-size="8px" fill="#000000" x="40.87897275559731" y="3" font-family="sans-serif">ORI…</text></g><g class="relationship" transform="translate(-26.131160423620656 38.48076513004711) rotate(396.386078995505)"><path class="outline" fill="#A5ABB6" stroke="none" d="M 25 0.5 L 39.44313630942584 0.5 L 39.44313630942584 -0.5 L 25 -0.5 Z M 98.63063630942584 0.5 L 113.07377261885168 0.5 L 113.07377261885168 3.5 L 120.07377261885168 0 L 113.07377261885168 -3.5 L 113.07377261885168 -0.5 L 98.63063630942584 -0.5 Z"/><text text-anchor="middle" pointer-events="none" font-size="8px" fill="#000000" x="69.03688630942584" y="3" font-family="sans-serif">DESTINATION</text></g><g class="relationship" transform="translate(2.80353743687326 201.139122705893) rotate(287.98843175316637)"><path class="outline" fill="#A5ABB6" stroke="none" d="M 25 0.5 L 30.759928220656832 0.5 L 30.759928220656832 -0.5 L 25 -0.5 Z M 65.20524072065683 0.5 L 70.96516894131366 0.5 L 70.96516894131366 3.5 L 77.96516894131366 0 L 70.96516894131366 -3.5 L 70.96516894131366 -0.5 L 65.20524072065683 -0.5 Z"/><text text-anchor="middle" pointer-events="none" font-size="8px" fill="#000000" x="47.98258447065683" y="3" font-family="sans-serif">ORIGIN</text></g><g class="relationship" transform="translate(2.80353743687326 201.139122705893) rotate(318.91620882019606)"><path class="outline" fill="#A5ABB6" stroke="none" d="M 25 0.5 L 25.185038230599673 0.5 L 25.185038230599673 -0.5 L 25 -0.5 Z M 84.37253823059967 0.5 L 84.55757646119935 0.5 L 84.55757646119935 3.5 L 91.55757646119935 0 L 84.55757646119935 -3.5 L 84.55757646119935 -0.5 L 84.37253823059967 -0.5 Z"/><text text-anchor="middle" pointer-events="none" font-size="8px" fill="#000000" x="54.77878823059967" y="3" font-family="sans-serif">DESTINATION</text></g><g class="relationship" transform="translate(157.3584871909383 195.62837519393156) rotate(216.97544240666366)"><path class="outline" fill="#A5ABB6" stroke="none" d="M 25 0.5 L 43.735485201182996 0.5 L 43.735485201182996 -0.5 L 25 -0.5 Z M 102.922985201183 0.5 L 121.65847040236599 0.5 L 121.65847040236599 3.5 L 128.658470402366 0 L 121.65847040236599 -3.5 L 121.65847040236599 -0.5 L 102.922985201183 -0.5 Z"/><text text-anchor="middle" pointer-events="none" font-size="8px" fill="#000000" x="73.329235201183" y="3" transform="rotate(180 73.329235201183 0)" font-family="sans-serif">DESTINATION</text></g><g class="relationship" transform="translate(157.3584871909383 195.62837519393156) rotate(226.8235150843127)"><path class="outline" fill="#A5ABB6" stroke="none" d="M 25 0.5 L 28.01681191848632 0.5 L 28.01681191848632 -0.5 L 25 -0.5 Z M 62.46212441848632 0.5 L 65.47893633697264 0.5 L 65.47893633697264 3.5 L 72.47893633697264 0 L 65.47893633697264 -3.5 L 65.47893633697264 -0.5 L 62.46212441848632 -0.5 Z"/><text text-anchor="middle" pointer-events="none" font-size="8px" fill="#000000" x="45.23946816848632" y="3" transform="rotate(180 45.23946816848632 0)" font-family="sans-serif">ORIGIN</text></g><g class="relationship" transform="translate(41.75072221215083 -122.12019567538621) rotate(451.8172171448814)"><path class="outline" fill="#A5ABB6" stroke="none" d="M 25 0.5 L 91.99763410291342 0.5 L 91.99763410291342 -0.5 L 25 -0.5 Z M 126.44294660291342 0.5 L 193.44058070582685 0.5 L 193.44058070582685 3.5 L 200.44058070582685 0 L 193.44058070582685 -3.5 L 193.44058070582685 -0.5 L 126.44294660291342 -0.5 Z"/><text text-anchor="middle" pointer-events="none" font-size="8px" fill="#000000" x="109.22029035291342" y="3" transform="rotate(180 109.22029035291342 0)" font-family="sans-serif">ORIGIN</text></g><g class="relationship" transform="translate(41.75072221215083 -122.12019567538621) rotate(306.61275228420357)"><path class="outline" fill="#A5ABB6" stroke="none" d="M 25 0.5 L 48.69777941276112 0.5 L 48.69777941276112 -0.5 L 25 -0.5 Z M 107.88527941276112 0.5 L 131.58305882552224 0.5 L 131.58305882552224 3.5 L 138.58305882552224 0 L 131.58305882552224 -3.5 L 131.58305882552224 -0.5 L 107.88527941276112 -0.5 Z"/><text text-anchor="middle" pointer-events="none" font-size="8px" fill="#000000" x="78.29152941276112" y="3" font-family="sans-serif">DESTINATION</text></g><g class="relationship" transform="translate(-127.58123849737952 195.49117364098467) rotate(330.35957769306435)"><path class="outline" fill="#A5ABB6" stroke="none" d="M 25 0.5 L 60.20642436122954 0.5 L 60.20642436122954 -0.5 L 25 -0.5 Z M 119.39392436122954 0.5 L 154.60034872245907 0.5 L 154.60034872245907 3.5 L 161.60034872245907 0 L 154.60034872245907 -3.5 L 154.60034872245907 -0.5 L 119.39392436122954 -0.5 Z"/><text text-anchor="middle" pointer-events="none" font-size="8px" fill="#000000" x="89.80017436122954" y="3" font-family="sans-serif">DESTINATION</text></g><g class="relationship" transform="translate(-127.58123849737952 195.49117364098467) rotate(465.5648769074403)"><path class="outline" fill="#A5ABB6" stroke="none" d="M 25 0.5 L 72.10299417813437 0.5 L 72.10299417813437 -0.5 L 25 -0.5 Z M 106.54830667813437 0.5 L 153.65130085626873 0.5 L 153.65130085626873 3.5 L 160.65130085626873 0 L 153.65130085626873 -3.5 L 153.65130085626873 -0.5 L 106.54830667813437 -0.5 Z"/><text text-anchor="middle" pointer-events="none" font-size="8px" fill="#000000" x="89.32565042813437" y="3" transform="rotate(180 89.32565042813437 0)" font-family="sans-serif">ORIGIN</text></g><g class="relationship" transform="translate(148.91167487396692 28.114216073642027) rotate(506.69817748586064)"><path class="outline" fill="#A5ABB6" stroke="none" d="M 25 0.5 L 47.66170866815146 0.5 L 47.66170866815146 -0.5 L 25 -0.5 Z M 82.10702116815146 0.5 L 104.76872983630292 0.5 L 104.76872983630292 3.5 L 111.76872983630292 0 L 104.76872983630292 -3.5 L 104.76872983630292 -0.5 L 82.10702116815146 -0.5 Z"/><text text-anchor="middle" pointer-events="none" font-size="8px" fill="#000000" x="64.88436491815146" y="3" transform="rotate(180 64.88436491815146 0)" font-family="sans-serif">ORIGIN</text></g><g class="relationship" transform="translate(148.91167487396692 28.114216073642027) rotate(481.1365977437439)"><path class="outline" fill="#A5ABB6" stroke="none" d="M 25 0.5 L 25.234983919999536 0.5 L 25.234983919999536 -0.5 L 25 -0.5 Z M 80.42248391999954 0.5 L 80.65746783999907 0.5 L 80.65746783999907 3.5 L 87.65746783999907 0 L 80.65746783999907 -3.5 L 80.65746783999907 -0.5 L 80.42248391999954 -0.5 Z"/><text text-anchor="middle" pointer-events="none" font-size="8px" fill="#000000" x="52.828733919999536" y="3" transform="rotate(180 52.828733919999536 0)" font-family="sans-serif">DESTINATI…</text></g><g class="relationship" transform="translate(-149.43045497787327 -2.2595521994597845) rotate(389.81648294220327)"><path class="outline" fill="#A5ABB6" stroke="none" d="M 25 0.5 L 72.96171675535321 0.5 L 72.96171675535321 -0.5 L 25 -0.5 Z M 132.14921675535322 0.5 L 180.11093351070642 0.5 L 180.11093351070642 3.5 L 187.11093351070642 0 L 180.11093351070642 -3.5 L 180.11093351070642 -0.5 L 132.14921675535322 -0.5 Z"/><text text-anchor="middle" pointer-events="none" font-size="8px" fill="#000000" x="102.55546675535321" y="3" font-family="sans-serif">DESTINATION</text></g><g class="relationship" transform="translate(-149.43045497787327 -2.2595521994597845) rotate(536.3027038406497)"><path class="outline" fill="#A5ABB6" stroke="none" d="M 25 0.5 L 56.07785062045505 0.5 L 56.07785062045505 -0.5 L 25 -0.5 Z M 90.52316312045505 0.5 L 121.6010137409101 0.5 L 121.6010137409101 3.5 L 128.6010137409101 0 L 121.6010137409101 -3.5 L 121.6010137409101 -0.5 L 90.52316312045505 -0.5 Z"/><text text-anchor="middle" pointer-events="none" font-size="8px" fill="#000000" x="73.30050687045505" y="3" transform="rotate(180 73.30050687045505 0)" font-family="sans-serif">ORIGIN</text></g><g class="relationship" transform="translate(193.94172439984607 -62.8992463362578) rotate(493.8089478282178)"><path class="outline" fill="#A5ABB6" stroke="none" d="M 25 0.5 L 94.36482534525823 0.5 L 94.36482534525823 -0.5 L 25 -0.5 Z M 128.81013784525823 0.5 L 198.17496319051645 0.5 L 198.17496319051645 3.5 L 205.17496319051645 0 L 198.17496319051645 -3.5 L 198.17496319051645 -0.5 L 128.81013784525823 -0.5 Z"/><text text-anchor="middle" pointer-events="none" font-size="8px" fill="#000000" x="111.58748159525823" y="3" transform="rotate(180 111.58748159525823 0)" font-family="sans-serif">ORIGIN</text></g><g class="relationship" transform="translate(193.94172439984607 -62.8992463362578) rotate(331.1433295837547)"><path class="outline" fill="#A5ABB6" stroke="none" d="M 25 0.5 L 51.50675164315625 0.5 L 51.50675164315625 -0.5 L 25 -0.5 Z M 110.69425164315625 0.5 L 137.2010032863125 0.5 L 137.2010032863125 3.5 L 144.2010032863125 0 L 137.2010032863125 -3.5 L 137.2010032863125 -0.5 L 110.69425164315625 -0.5 Z"/><text text-anchor="middle" pointer-events="none" font-size="8px" fill="#000000" x="81.10050164315625" y="3" font-family="sans-serif">DESTINATION</text></g><g class="relationship" transform="translate(-14.583383052004494 -100.48325076521226) rotate(436.4246426198529)"><path class="outline" fill="#A5ABB6" stroke="none" d="M 25 0.5 L 71.6785007290775 0.5 L 71.6785007290775 -0.5 L 25 -0.5 Z M 130.86600072907748 0.5 L 177.544501458155 0.5 L 177.544501458155 3.5 L 184.544501458155 0 L 177.544501458155 -3.5 L 177.544501458155 -0.5 L 130.86600072907748 -0.5 Z"/><text text-anchor="middle" pointer-events="none" font-size="8px" fill="#000000" x="101.2722507290775" y="3" font-family="sans-serif">DESTINATION</text></g><g class="relationship" transform="translate(-14.583383052004494 -100.48325076521226) rotate(244.39291034315613)"><path class="outline" fill="#A5ABB6" stroke="none" d="M 25 0.5 L 63.515649994211955 0.5 L 63.515649994211955 -0.5 L 25 -0.5 Z M 97.96096249421196 0.5 L 136.4766124884239 0.5 L 136.4766124884239 3.5 L 143.4766124884239 0 L 136.4766124884239 -3.5 L 136.4766124884239 -0.5 L 97.96096249421196 -0.5 Z"/><text text-anchor="middle" pointer-events="none" font-size="8px" fill="#000000" x="80.73830624421196" y="3" transform="rotate(180 80.73830624421196 0)" font-family="sans-serif">ORIGIN</text></g><g class="relationship" transform="translate(111.2086863849416 233.8745405588121) rotate(239.61802705566265)"><path class="outline" fill="#A5ABB6" stroke="none" d="M 25 0.5 L 55.01146261262028 0.5 L 55.01146261262028 -0.5 L 25 -0.5 Z M 89.45677511262028 0.5 L 119.46823772524056 0.5 L 119.46823772524056 3.5 L 126.46823772524056 0 L 119.46823772524056 -3.5 L 119.46823772524056 -0.5 L 89.45677511262028 -0.5 Z"/><text text-anchor="middle" pointer-events="none" font-size="8px" fill="#000000" x="72.23411886262028" y="3" transform="rotate(180 72.23411886262028 0)" font-family="sans-serif">ORIGIN</text></g><g class="relationship" transform="translate(111.2086863849416 233.8745405588121) rotate(259.35499118909036)"><path class="outline" fill="#A5ABB6" stroke="none" d="M 25 0.5 L 25.6411457444785 0.5 L 25.6411457444785 -0.5 L 25 -0.5 Z M 78.60598949447851 0.5 L 79.247135238957 0.5 L 79.247135238957 3.5 L 86.247135238957 0 L 79.247135238957 -3.5 L 79.247135238957 -0.5 L 78.60598949447851 -0.5 Z"/><text text-anchor="middle" pointer-events="none" font-size="8px" fill="#000000" x="52.1235676194785" y="3" transform="rotate(180 52.1235676194785 0)" font-family="sans-serif">DESTINAT…</text></g><g class="relationship" transform="translate(-191.4528143721309 40.3790707133797) rotate(375.53234624639765)"><path class="outline" fill="#A5ABB6" stroke="none" d="M 25 0.5 L 96.58891232969395 0.5 L 96.58891232969395 -0.5 L 25 -0.5 Z M 131.03422482969395 0.5 L 202.6231371593879 0.5 L 202.6231371593879 3.5 L 209.6231371593879 0 L 202.6231371593879 -3.5 L 202.6231371593879 -0.5 L 131.03422482969395 -0.5 Z"/><text text-anchor="middle" pointer-events="none" font-size="8px" fill="#000000" x="113.81156857969395" y="3" font-family="sans-serif">ORIGIN</text></g><g class="relationship" transform="translate(-191.4528143721309 40.3790707133797) rotate(196.39447204033178)"><path class="outline" fill="#A5ABB6" stroke="none" d="M 25 0.5 L 26.893417421314986 0.5 L 26.893417421314986 -0.5 L 25 -0.5 Z M 82.08091742131498 0.5 L 83.97433484262997 0.5 L 83.97433484262997 3.5 L 90.97433484262997 0 L 83.97433484262997 -3.5 L 83.97433484262997 -0.5 L 82.08091742131498 -0.5 Z"/><text text-anchor="middle" pointer-events="none" font-size="8px" fill="#000000" x="54.487167421314986" y="3" transform="rotate(180 54.487167421314986 0)" font-family="sans-serif">DESTINATI…</text></g><g class="relationship" transform="translate(142.50082474491572 -97.22187895016876) rotate(478.29539846968487)"><path class="outline" fill="#A5ABB6" stroke="none" d="M 25 0.5 L 93.09073007987892 0.5 L 93.09073007987892 -0.5 L 25 -0.5 Z M 127.53604257987892 0.5 L 195.62677265975785 0.5 L 195.62677265975785 3.5 L 202.62677265975785 0 L 195.62677265975785 -3.5 L 195.62677265975785 -0.5 L 127.53604257987892 -0.5 Z"/><text text-anchor="middle" pointer-events="none" font-size="8px" fill="#000000" x="110.31338632987892" y="3" transform="rotate(180 110.31338632987892 0)" font-family="sans-serif">ORIGIN</text></g><g class="relationship" transform="translate(142.50082474491572 -97.22187895016876) rotate(268.8305852746656)"><path class="outline" fill="#A5ABB6" stroke="none" d="M 25 0.5 L 45.02449246055029 0.5 L 45.02449246055029 -0.5 L 25 -0.5 Z M 104.21199246055029 0.5 L 124.23648492110058 0.5 L 124.23648492110058 3.5 L 131.23648492110058 0 L 124.23648492110058 -3.5 L 124.23648492110058 -0.5 L 104.21199246055029 -0.5 Z"/><text text-anchor="middle" pointer-events="none" font-size="8px" fill="#000000" x="74.61824246055029" y="3" transform="rotate(180 74.61824246055029 0)" font-family="sans-serif">DESTINATION</text></g></g><g class="layer nodes"><g class="node" transform="translate(34.60175223092823,103.2070056501262)"><circle class="outline" cx="0" cy="0" r="25" fill="#DA7194" stroke="#cc3c6c" stroke-width="2px"/><text text-anchor="middle" pointer-events="none" font-family="sans-serif" dy="1.5625" font-size="25" fill="#FFFFFF"/><text text-anchor="middle" pointer-events="none" y="5" font-size="10px" fill="#FFFFFF" font-family="sans-serif"> LAX</text></g><g class="node" transform="translate(-56.40424649354544,337.04487471369544)"><circle class="outline" cx="0" cy="0" r="25" fill="#FFC454" stroke="#d7a013" stroke-width="2px"/><text text-anchor="middle" pointer-events="none" font-family="sans-serif" dy="1.5625" font-size="25" fill="#604A0E"/><text text-anchor="middle" pointer-events="none" y="5" font-size="10px" fill="#604A0E" font-family="sans-serif"> 11/1/2015</text></g><g class="node" transform="translate(-177.3969292224369,374.3341284007689)"><circle class="outline" cx="0" cy="0" r="25" fill="#DA7194" stroke="#cc3c6c" stroke-width="2px"/><text text-anchor="middle" pointer-events="none" font-family="sans-serif" dy="1.5625" font-size="25" fill="#FFFFFF"/><text text-anchor="middle" pointer-events="none" y="5" font-size="10px" fill="#FFFFFF" font-family="sans-serif"> FAT</text></g><g class="node" transform="translate(104.29153612202526,318.45113956431743)"><circle class="outline" cx="0" cy="0" r="25" fill="#FFC454" stroke="#d7a013" stroke-width="2px"/><text text-anchor="middle" pointer-events="none" font-family="sans-serif" dy="1.5625" font-size="25" fill="#604A0E"/><text text-anchor="middle" pointer-events="none" y="5" font-size="10px" fill="#604A0E" font-family="sans-serif"> 11/29/20…</text></g><g class="node" transform="translate(161.26568018209352,494.02097484628973)"><circle class="outline" cx="0" cy="0" r="25" fill="#DA7194" stroke="#cc3c6c" stroke-width="2px"/><text text-anchor="middle" pointer-events="none" font-family="sans-serif" dy="1.5625" font-size="25" fill="#FFFFFF"/><text text-anchor="middle" pointer-events="none" y="5" font-size="10px" fill="#FFFFFF" font-family="sans-serif"> LAS</text></g><g class="node" transform="translate(237.07254091059616,220.48384629485858)"><circle class="outline" cx="0" cy="0" r="25" fill="#FFC454" stroke="#d7a013" stroke-width="2px"/><text text-anchor="middle" pointer-events="none" font-family="sans-serif" dy="1.5625" font-size="25" fill="#604A0E"/><text text-anchor="middle" pointer-events="none" y="5" font-size="10px" fill="#604A0E" font-family="sans-serif"> 11/3/2015</text></g><g class="node" transform="translate(403.52621904339827,208.21030877882112)"><circle class="outline" cx="0" cy="0" r="25" fill="#DA7194" stroke="#cc3c6c" stroke-width="2px"/><text text-anchor="middle" pointer-events="none" font-family="sans-serif" dy="1.5625" font-size="25" fill="#FFFFFF"/><text text-anchor="middle" pointer-events="none" y="5" font-size="10px" fill="#FFFFFF" font-family="sans-serif"> SLC</text></g><g class="node" transform="translate(173.46025574600904,137.02021299263023)"><circle class="outline" cx="0" cy="0" r="25" fill="#FFC454" stroke="#d7a013" stroke-width="2px"/><text text-anchor="middle" pointer-events="none" font-family="sans-serif" dy="1.5625" font-size="25" fill="#604A0E"/><text text-anchor="middle" pointer-events="none" y="5" font-size="10px" fill="#604A0E" font-family="sans-serif"> 11/1/2015</text></g><g class="node" transform="translate(90.65873281237918,124.54190816097619)"><circle class="outline" cx="0" cy="0" r="25" fill="#DA7194" stroke="#cc3c6c" stroke-width="2px"/><text text-anchor="middle" pointer-events="none" font-family="sans-serif" dy="1.5625" font-size="25" fill="#FFFFFF"/><text text-anchor="middle" pointer-events="none" y="5" font-size="10px" fill="#FFFFFF" font-family="sans-serif"> ABQ</text></g><g class="node" transform="translate(176.04337745429166,282.308516176164)"><circle class="outline" cx="0" cy="0" r="25" fill="#FFC454" stroke="#d7a013" stroke-width="2px"/><text text-anchor="middle" pointer-events="none" font-family="sans-serif" dy="1.5625" font-size="25" fill="#604A0E"/><text text-anchor="middle" pointer-events="none" y="5" font-size="10px" fill="#604A0E" font-family="sans-serif"> 11/29/20…</text></g><g class="node" transform="translate(308.4877449389634,416.4766812117607)"><circle class="outline" cx="0" cy="0" r="25" fill="#DA7194" stroke="#cc3c6c" stroke-width="2px"/><text text-anchor="middle" pointer-events="none" font-family="sans-serif" dy="1.5625" font-size="25" fill="#FFFFFF"/><text text-anchor="middle" pointer-events="none" y="5" font-size="10px" fill="#FFFFFF" font-family="sans-serif"> HNL</text></g><g class="node" transform="translate(-84.51180398550251,237.1152492041718)"><circle class="outline" cx="0" cy="0" r="25" fill="#FFC454" stroke="#d7a013" stroke-width="2px"/><text text-anchor="middle" pointer-events="none" font-family="sans-serif" dy="1.5625" font-size="25" fill="#604A0E"/><text text-anchor="middle" pointer-events="none" y="5" font-size="10px" fill="#604A0E" font-family="sans-serif"> 11/3/2015</text></g><g class="node" transform="translate(84.95600535470422,-80.56920977181268)"><circle class="outline" cx="0" cy="0" r="25" fill="#FFC454" stroke="#d7a013" stroke-width="2px"/><text text-anchor="middle" pointer-events="none" font-family="sans-serif" dy="1.5625" font-size="25" fill="#604A0E"/><text text-anchor="middle" pointer-events="none" y="5" font-size="10px" fill="#604A0E" font-family="sans-serif"> 11/1/2015</text></g><g class="node" transform="translate(139.31223803077214,-253.4258229953422)"><circle class="outline" cx="0" cy="0" r="25" fill="#DA7194" stroke="#cc3c6c" stroke-width="2px"/><text text-anchor="middle" pointer-events="none" font-family="sans-serif" dy="1.5625" font-size="25" fill="#FFFFFF"/><text text-anchor="middle" pointer-events="none" y="5" font-size="10px" fill="#FFFFFF" font-family="sans-serif"> SMF</text></g><g class="node" transform="translate(182.5751657141808,77.744468385307)"><circle class="outline" cx="0" cy="0" r="25" fill="#FFC454" stroke="#d7a013" stroke-width="2px"/><text text-anchor="middle" pointer-events="none" font-family="sans-serif" dy="1.5625" font-size="25" fill="#604A0E"/><text text-anchor="middle" pointer-events="none" y="5" font-size="10px" fill="#604A0E" font-family="sans-serif"> 11/2/2015</text></g><g class="node" transform="translate(-48.518099265185384,133.81041710217562)"><circle class="outline" cx="0" cy="0" r="25" fill="#FFC454" stroke="#d7a013" stroke-width="2px"/><text text-anchor="middle" pointer-events="none" font-family="sans-serif" dy="1.5625" font-size="25" fill="#604A0E"/><text text-anchor="middle" pointer-events="none" y="5" font-size="10px" fill="#604A0E" font-family="sans-serif"> 11/4/2015</text></g><g class="node" transform="translate(-142.12785808044399,253.48809825283487)"><circle class="outline" cx="0" cy="0" r="25" fill="#FFC454" stroke="#d7a013" stroke-width="2px"/><text text-anchor="middle" pointer-events="none" font-family="sans-serif" dy="1.5625" font-size="25" fill="#604A0E"/><text text-anchor="middle" pointer-events="none" y="5" font-size="10px" fill="#604A0E" font-family="sans-serif"> 11/1/2015</text></g><g class="node" transform="translate(229.82610822902527,157.416888348896)"><circle class="outline" cx="0" cy="0" r="25" fill="#FFC454" stroke="#d7a013" stroke-width="2px"/><text text-anchor="middle" pointer-events="none" font-family="sans-serif" dy="1.5625" font-size="25" fill="#604A0E"/><text text-anchor="middle" pointer-events="none" y="5" font-size="10px" fill="#604A0E" font-family="sans-serif"> 11/4/2015</text></g><g class="node" transform="translate(-185.10439593003076,211.95809241946748)"><circle class="outline" cx="0" cy="0" r="25" fill="#FFC454" stroke="#d7a013" stroke-width="2px"/><text text-anchor="middle" pointer-events="none" font-family="sans-serif" dy="1.5625" font-size="25" fill="#604A0E"/><text text-anchor="middle" pointer-events="none" y="5" font-size="10px" fill="#604A0E" font-family="sans-serif"> 11/4/2015</text></g><g class="node" transform="translate(257.0649625764139,39.85424278721319)"><circle class="outline" cx="0" cy="0" r="25" fill="#FFC454" stroke="#d7a013" stroke-width="2px"/><text text-anchor="middle" pointer-events="none" font-family="sans-serif" dy="1.5625" font-size="25" fill="#604A0E"/><text text-anchor="middle" pointer-events="none" y="5" font-size="10px" fill="#604A0E" font-family="sans-serif"> 11/29/20…</text></g><g class="node" transform="translate(444.54831738621453,-7.7249083282259825)"><circle class="outline" cx="0" cy="0" r="25" fill="#DA7194" stroke="#cc3c6c" stroke-width="2px"/><text text-anchor="middle" pointer-events="none" font-family="sans-serif" dy="1.5625" font-size="25" fill="#FFFFFF"/><text text-anchor="middle" pointer-events="none" y="5" font-size="10px" fill="#FFFFFF" font-family="sans-serif"> SFO</text></g><g class="node" transform="translate(233.22142228762277,-17.74486759738338)"><circle class="outline" cx="0" cy="0" r="25" fill="#FFC454" stroke="#d7a013" stroke-width="2px"/><text text-anchor="middle" pointer-events="none" font-family="sans-serif" dy="1.5625" font-size="25" fill="#604A0E"/><text text-anchor="middle" pointer-events="none" y="5" font-size="10px" fill="#604A0E" font-family="sans-serif"> 11/29/20…</text></g><g class="node" transform="translate(342.13299781938525,-144.55906506854564)"><circle class="outline" cx="0" cy="0" r="25" fill="#DA7194" stroke="#cc3c6c" stroke-width="2px"/><text text-anchor="middle" pointer-events="none" font-family="sans-serif" dy="1.5625" font-size="25" fill="#FFFFFF"/><text text-anchor="middle" pointer-events="none" y="5" font-size="10px" fill="#FFFFFF" font-family="sans-serif"> EWR</text></g><g class="node" transform="translate(283.7628619698125,182.91019905081126)"><circle class="outline" cx="0" cy="0" r="25" fill="#FFC454" stroke="#d7a013" stroke-width="2px"/><text text-anchor="middle" pointer-events="none" font-family="sans-serif" dy="1.5625" font-size="25" fill="#604A0E"/><text text-anchor="middle" pointer-events="none" y="5" font-size="10px" fill="#604A0E" font-family="sans-serif"> 11/1/2015</text></g><g class="node" transform="translate(-73.96779018506594,-93.2407772483457)"><circle class="outline" cx="0" cy="0" r="25" fill="#FFC454" stroke="#d7a013" stroke-width="2px"/><text text-anchor="middle" pointer-events="none" font-family="sans-serif" dy="1.5625" font-size="25" fill="#604A0E"/><text text-anchor="middle" pointer-events="none" y="5" font-size="10px" fill="#604A0E" font-family="sans-serif"> 11/30/20…</text></g><g class="node" transform="translate(-87.39852620104838,-252.4119310193328)"><circle class="outline" cx="0" cy="0" r="25" fill="#DA7194" stroke="#cc3c6c" stroke-width="2px"/><text text-anchor="middle" pointer-events="none" font-family="sans-serif" dy="1.5625" font-size="25" fill="#FFFFFF"/><text text-anchor="middle" pointer-events="none" y="5" font-size="10px" fill="#FFFFFF" font-family="sans-serif"> ORD</text></g><g class="node" transform="translate(-96.177731519768,-37.54978851654779)"><circle class="outline" cx="0" cy="0" r="25" fill="#FFC454" stroke="#d7a013" stroke-width="2px"/><text text-anchor="middle" pointer-events="none" font-family="sans-serif" dy="1.5625" font-size="25" fill="#604A0E"/><text text-anchor="middle" pointer-events="none" y="5" font-size="10px" fill="#604A0E" font-family="sans-serif"> 11/30/20…</text></g><g class="node" transform="translate(-223.13281638319748,-175.36372077784597)"><circle class="outline" cx="0" cy="0" r="25" fill="#DA7194" stroke="#cc3c6c" stroke-width="2px"/><text text-anchor="middle" pointer-events="none" font-family="sans-serif" dy="1.5625" font-size="25" fill="#FFFFFF"/><text text-anchor="middle" pointer-events="none" y="5" font-size="10px" fill="#FFFFFF" font-family="sans-serif"> IAH</text></g><g class="node" transform="translate(1.0432750832433748,320.8508910123836)"><circle class="outline" cx="0" cy="0" r="25" fill="#FFC454" stroke="#d7a013" stroke-width="2px"/><text text-anchor="middle" pointer-events="none" font-family="sans-serif" dy="1.5625" font-size="25" fill="#604A0E"/><text text-anchor="middle" pointer-events="none" y="5" font-size="10px" fill="#604A0E" font-family="sans-serif"> 11/2/2015</text></g><g class="node" transform="translate(-41.65934423502655,278.9142751207413)"><circle class="outline" cx="0" cy="0" r="25" fill="#FFC454" stroke="#d7a013" stroke-width="2px"/><text text-anchor="middle" pointer-events="none" font-family="sans-serif" dy="1.5625" font-size="25" fill="#604A0E"/><text text-anchor="middle" pointer-events="none" y="5" font-size="10px" fill="#604A0E" font-family="sans-serif"> 11/2/2015</text></g><g class="node" transform="translate(276.06228987329666,119.40575509356076)"><circle class="outline" cx="0" cy="0" r="25" fill="#FFC454" stroke="#d7a013" stroke-width="2px"/><text text-anchor="middle" pointer-events="none" font-family="sans-serif" dy="1.5625" font-size="25" fill="#604A0E"/><text text-anchor="middle" pointer-events="none" y="5" font-size="10px" fill="#604A0E" font-family="sans-serif"> 11/2/2015</text></g><g class="node" transform="translate(51.42199354252169,236.3166134411745)"><circle class="outline" cx="0" cy="0" r="25" fill="#FFC454" stroke="#d7a013" stroke-width="2px"/><text text-anchor="middle" pointer-events="none" font-family="sans-serif" dy="1.5625" font-size="25" fill="#604A0E"/><text text-anchor="middle" pointer-events="none" y="5" font-size="10px" fill="#604A0E" font-family="sans-serif"> 11/3/2015</text></g><g class="node" transform="translate(-175.89354350947912,98.224751078858)"><circle class="outline" cx="0" cy="0" r="25" fill="#FFC454" stroke="#d7a013" stroke-width="2px"/><text text-anchor="middle" pointer-events="none" font-family="sans-serif" dy="1.5625" font-size="25" fill="#604A0E"/><text text-anchor="middle" pointer-events="none" y="5" font-size="10px" fill="#604A0E" font-family="sans-serif"> 11/1/2015</text></g><g class="node" transform="translate(-302.7117731688646,7.64544229156918)"><circle class="outline" cx="0" cy="0" r="25" fill="#DA7194" stroke="#cc3c6c" stroke-width="2px"/><text text-anchor="middle" pointer-events="none" font-family="sans-serif" dy="1.5625" font-size="25" fill="#FFFFFF"/><text text-anchor="middle" pointer-events="none" y="5" font-size="10px" fill="#FFFFFF" font-family="sans-serif"> TUS</text></g><g class="node" transform="translate(99.26851169150117,-138.6032391517777)"><circle class="outline" cx="0" cy="0" r="25" fill="#FFC454" stroke="#d7a013" stroke-width="2px"/><text text-anchor="middle" pointer-events="none" font-family="sans-serif" dy="1.5625" font-size="25" fill="#604A0E"/><text text-anchor="middle" pointer-events="none" y="5" font-size="10px" fill="#604A0E" font-family="sans-serif"> 11/4/2015</text></g><g class="node" transform="translate(-99.26484333857732,295.1171678496202)"><circle class="outline" cx="0" cy="0" r="25" fill="#FFC454" stroke="#d7a013" stroke-width="2px"/><text text-anchor="middle" pointer-events="none" font-family="sans-serif" dy="1.5625" font-size="25" fill="#604A0E"/><text text-anchor="middle" pointer-events="none" y="5" font-size="10px" fill="#604A0E" font-family="sans-serif"> 11/3/2015</text></g><g class="node" transform="translate(92.7678749667222,7.14461491682452)"><circle class="outline" cx="0" cy="0" r="25" fill="#FFC454" stroke="#d7a013" stroke-width="2px"/><text text-anchor="middle" pointer-events="none" font-family="sans-serif" dy="1.5625" font-size="25" fill="#604A0E"/><text text-anchor="middle" pointer-events="none" y="5" font-size="10px" fill="#604A0E" font-family="sans-serif"> 11/4/2015</text></g><g class="node" transform="translate(32.974616418517996,2.611352769069875)"><circle class="outline" cx="0" cy="0" r="25" fill="#FFC454" stroke="#d7a013" stroke-width="2px"/><text text-anchor="middle" pointer-events="none" font-family="sans-serif" dy="1.5625" font-size="25" fill="#604A0E"/><text text-anchor="middle" pointer-events="none" y="5" font-size="10px" fill="#604A0E" font-family="sans-serif"> 11/1/2015</text></g><g class="node" transform="translate(-133.70335697768684,55.621045237833485)"><circle class="outline" cx="0" cy="0" r="25" fill="#FFC454" stroke="#d7a013" stroke-width="2px"/><text text-anchor="middle" pointer-events="none" font-family="sans-serif" dy="1.5625" font-size="25" fill="#604A0E"/><text text-anchor="middle" pointer-events="none" y="5" font-size="10px" fill="#604A0E" font-family="sans-serif"> 11/1/2015</text></g><g class="node" transform="translate(-26.131160423620656,38.48076513004711)"><circle class="outline" cx="0" cy="0" r="25" fill="#FFC454" stroke="#d7a013" stroke-width="2px"/><text text-anchor="middle" pointer-events="none" font-family="sans-serif" dy="1.5625" font-size="25" fill="#604A0E"/><text text-anchor="middle" pointer-events="none" y="5" font-size="10px" fill="#604A0E" font-family="sans-serif"> 11/2/2015</text></g><g class="node" transform="translate(2.80353743687326,201.139122705893)"><circle class="outline" cx="0" cy="0" r="25" fill="#FFC454" stroke="#d7a013" stroke-width="2px"/><text text-anchor="middle" pointer-events="none" font-family="sans-serif" dy="1.5625" font-size="25" fill="#604A0E"/><text text-anchor="middle" pointer-events="none" y="5" font-size="10px" fill="#604A0E" font-family="sans-serif"> 11/1/2015</text></g><g class="node" transform="translate(157.3584871909383,195.62837519393156)"><circle class="outline" cx="0" cy="0" r="25" fill="#FFC454" stroke="#d7a013" stroke-width="2px"/><text text-anchor="middle" pointer-events="none" font-family="sans-serif" dy="1.5625" font-size="25" fill="#604A0E"/><text text-anchor="middle" pointer-events="none" y="5" font-size="10px" fill="#604A0E" font-family="sans-serif"> 11/2/2015</text></g><g class="node" transform="translate(41.75072221215083,-122.12019567538621)"><circle class="outline" cx="0" cy="0" r="25" fill="#FFC454" stroke="#d7a013" stroke-width="2px"/><text text-anchor="middle" pointer-events="none" font-family="sans-serif" dy="1.5625" font-size="25" fill="#604A0E"/><text text-anchor="middle" pointer-events="none" y="5" font-size="10px" fill="#604A0E" font-family="sans-serif"> 11/3/2015</text></g><g class="node" transform="translate(-127.58123849737952,195.49117364098467)"><circle class="outline" cx="0" cy="0" r="25" fill="#FFC454" stroke="#d7a013" stroke-width="2px"/><text text-anchor="middle" pointer-events="none" font-family="sans-serif" dy="1.5625" font-size="25" fill="#604A0E"/><text text-anchor="middle" pointer-events="none" y="5" font-size="10px" fill="#604A0E" font-family="sans-serif"> 11/4/2015</text></g><g class="node" transform="translate(148.91167487396692,28.114216073642027)"><circle class="outline" cx="0" cy="0" r="25" fill="#FFC454" stroke="#d7a013" stroke-width="2px"/><text text-anchor="middle" pointer-events="none" font-family="sans-serif" dy="1.5625" font-size="25" fill="#604A0E"/><text text-anchor="middle" pointer-events="none" y="5" font-size="10px" fill="#604A0E" font-family="sans-serif"> 11/3/2015</text></g><g class="node" transform="translate(-149.43045497787327,-2.2595521994597845)"><circle class="outline" cx="0" cy="0" r="25" fill="#FFC454" stroke="#d7a013" stroke-width="2px"/><text text-anchor="middle" pointer-events="none" font-family="sans-serif" dy="1.5625" font-size="25" fill="#604A0E"/><text text-anchor="middle" pointer-events="none" y="5" font-size="10px" fill="#604A0E" font-family="sans-serif"> 11/2/2015</text></g><g class="node" transform="translate(193.94172439984607,-62.8992463362578)"><circle class="outline" cx="0" cy="0" r="25" fill="#FFC454" stroke="#d7a013" stroke-width="2px"/><text text-anchor="middle" pointer-events="none" font-family="sans-serif" dy="1.5625" font-size="25" fill="#604A0E"/><text text-anchor="middle" pointer-events="none" y="5" font-size="10px" fill="#604A0E" font-family="sans-serif"> 11/30/20…</text></g><g class="node" transform="translate(-14.583383052004494,-100.48325076521226)"><circle class="outline" cx="0" cy="0" r="25" fill="#FFC454" stroke="#d7a013" stroke-width="2px"/><text text-anchor="middle" pointer-events="none" font-family="sans-serif" dy="1.5625" font-size="25" fill="#604A0E"/><text text-anchor="middle" pointer-events="none" y="5" font-size="10px" fill="#604A0E" font-family="sans-serif"> 11/29/20…</text></g><g class="node" transform="translate(111.2086863849416,233.8745405588121)"><circle class="outline" cx="0" cy="0" r="25" fill="#FFC454" stroke="#d7a013" stroke-width="2px"/><text text-anchor="middle" pointer-events="none" font-family="sans-serif" dy="1.5625" font-size="25" fill="#604A0E"/><text text-anchor="middle" pointer-events="none" y="5" font-size="10px" fill="#604A0E" font-family="sans-serif"> 11/3/2015</text></g><g class="node" transform="translate(-191.4528143721309,40.3790707133797)"><circle class="outline" cx="0" cy="0" r="25" fill="#FFC454" stroke="#d7a013" stroke-width="2px"/><text text-anchor="middle" pointer-events="none" font-family="sans-serif" dy="1.5625" font-size="25" fill="#604A0E"/><text text-anchor="middle" pointer-events="none" y="5" font-size="10px" fill="#604A0E" font-family="sans-serif"> 11/2/2015</text></g><g class="node" transform="translate(142.50082474491572,-97.22187895016876)"><circle class="outline" cx="0" cy="0" r="25" fill="#FFC454" stroke="#d7a013" stroke-width="2px"/><text text-anchor="middle" pointer-events="none" font-family="sans-serif" dy="1.5625" font-size="25" fill="#604A0E"/><text text-anchor="middle" pointer-events="none" y="5" font-size="10px" fill="#604A0E" font-family="sans-serif"> 11/2/2015</text></g></g></svg>